<?xml version="1.0" standalone="yes"?>
<!DOCTYPE svg PUBLIC "-//W3C//DTD SVG 1.1//EN"
 "http://www.w3.org/Graphics/SVG/1.1/DTD/svg11.dtd">
<svg xmlns="http://www.w3.org/2000/svg" version="1.1"
  width="100%" height="100%" viewBox="0 0 1024 768"
  style="fill: none; font-family: Helvetica;
 font: Helvetica;
">

<!-- Creator: NGspice -->

<rect x="0" y="0" width="1024" height="768" fill="black" stroke="none"/>
<text stroke="none" fill="white" font-size="16" x="358" y="752">
time
</text>
<text stroke="none" fill="white" font-size="16" x="10" y="16">
tran1: ** sch_path: /home/lxbtlr/mad/miniproject2/mp2_lab_2.sch
</text>
<path stroke="white" d="M50 720l0 -671"/>
<text stroke="none" fill="white" font-size="16" x="35" y="728">
0.0
</text>
<path stroke="white" stroke-dasharray="1,2" d="M165 720l0 -671"/>
<text stroke="none" fill="white" font-size="16" x="145" y="728">
10.0
</text>
<path stroke="white" stroke-dasharray="1,2" d="M280 720l0 -671"/>
<text stroke="none" fill="white" font-size="16" x="260" y="728">
20.0
</text>
<path stroke="white" stroke-dasharray="1,2" d="M395 720l0 -671"/>
<text stroke="none" fill="white" font-size="16" x="375" y="728">
30.0
</text>
<path stroke="white" stroke-dasharray="1,2" d="M510 720l0 -671"/>
<text stroke="none" fill="white" font-size="16" x="490" y="728">
40.0
</text>
<path stroke="white" stroke-dasharray="1,2" d="M625 720l0 -671"/>
<text stroke="none" fill="white" font-size="16" x="605" y="728">
50.0
</text>
<path stroke="white" stroke-dasharray="1,2" d="M740 720l0 -671"/>
<text stroke="none" fill="white" font-size="16" x="720" y="728">
60.0
</text>
<path stroke="white" stroke-dasharray="1,2" d="M855 720l0 -671"/>
<text stroke="none" fill="white" font-size="16" x="835" y="728">
70.0
</text>
<path stroke="white" stroke-dasharray="1,2" d="M970 720l0 -671"/>
<text stroke="none" fill="white" font-size="16" x="950" y="728">
80.0
</text>
<text stroke="none" fill="white" font-size="16" x="614" y="752">
ns
</text>
<path stroke="white" stroke-dasharray="1,2" d="M50 720l920 0"/>
<text stroke="none" fill="white" font-size="16" x="8" y="728">
-0.2
</text>
<path stroke="white" d="M50 659l920 0"/>
<text stroke="none" fill="white" font-size="16" x="18" y="667">
0.0
</text>
<path stroke="white" stroke-dasharray="1,2" d="M50 598l920 0"/>
<text stroke="none" fill="white" font-size="16" x="18" y="606">
0.2
</text>
<path stroke="white" stroke-dasharray="1,2" d="M50 537l920 0"/>
<text stroke="none" fill="white" font-size="16" x="18" y="545">
0.4
</text>
<path stroke="white" stroke-dasharray="1,2" d="M50 476l920 0"/>
<text stroke="none" fill="white" font-size="16" x="18" y="484">
0.6
</text>
<path stroke="white" stroke-dasharray="1,2" d="M50 415l920 0"/>
<text stroke="none" fill="white" font-size="16" x="18" y="423">
0.8
</text>
<path stroke="white" stroke-dasharray="1,2" d="M50 354l920 0"/>
<text stroke="none" fill="white" font-size="16" x="18" y="362">
1.0
</text>
<path stroke="white" stroke-dasharray="1,2" d="M50 293l920 0"/>
<text stroke="none" fill="white" font-size="16" x="18" y="301">
1.2
</text>
<path stroke="white" stroke-dasharray="1,2" d="M50 232l920 0"/>
<text stroke="none" fill="white" font-size="16" x="18" y="240">
1.4
</text>
<path stroke="white" stroke-dasharray="1,2" d="M50 171l920 0"/>
<text stroke="none" fill="white" font-size="16" x="18" y="179">
1.6
</text>
<path stroke="white" stroke-dasharray="1,2" d="M50 110l920 0"/>
<text stroke="none" fill="white" font-size="16" x="18" y="118">
1.8
</text>
<path stroke="white" stroke-dasharray="1,2" d="M50 49l920 0"/>
<text stroke="none" fill="white" font-size="16" x="18" y="57">
2.0
</text>
<text stroke="none" fill="white" font-size="16" x="10" y="32">
V
</text>
<path stroke="red" d="M460 23l46 0"/>
<text stroke="none" fill="white" font-size="16" x="516" y="32">
v(CLK)
</text>
<path stroke="red" d="M50 659l12 0 0 -47 1 -5 0 -39 1 -5 0 -44 1 -5 0 -44 1 -6 0 -38 1 -6 0 -44 1 -5 0 -44 1 -6 0 -44 1 -5 0 -38 1 -6 0 -44 1 -5 0 -44 1 -6 0 -19 46 0M119 129l0 -19M119 129l1 6M120 179l0 -44M120 179l1 5M121 228l0 -44M121 228l1 6"/>
<path stroke="red" d="M122 272l0 -38M122 272l1 5M123 321l0 -44M123 321l1 6M124 371l0 -44M124 371l1 5M125 420l0 -44M125 420l1 6M126 464l0 -38M126 464l1 6M127 514l0 -44M127 514l1 5M128 563l0 -44M128 563l1 5M129 607l0 -39M129 607l1 5M130 656l0 -44"/>
<path stroke="red" d="M130 656l1 3 46 0 0 -47 1 -5 0 -39 1 -5 0 -44 1 -5 0 -44 1 -6 0 -38 1 -6 0 -44 1 -5 0 -44 1 -6 0 -44 1 -5 0 -38 1 -6 0 -44 1 -5 0 -44 1 -6 0 -19 46 0M234 129l0 -19M234 129l1 6M235 179l0 -44M235 179l1 5M236 228l0 -44M236 228l1 6"/>
<path stroke="red" d="M237 272l0 -38M237 272l1 5M238 321l0 -44M238 321l1 6M239 371l0 -44M239 371l1 5M240 420l0 -44M240 420l1 6M241 464l0 -38M241 464l1 6M242 514l0 -44M242 514l1 5M243 563l0 -44M243 563l1 5M244 607l0 -39M244 607l1 5M245 656l0 -44"/>
<path stroke="red" d="M245 656l1 3 46 0 0 -47 1 -5 0 -39 1 -5 0 -44 1 -5 0 -44 1 -6 0 -38 1 -6 0 -44 1 -5 0 -44 1 -6 0 -44 1 -5 0 -38 1 -6 0 -44 1 -5 0 -44 1 -6 0 -19 46 0M349 129l0 -19M349 129l1 6M350 179l0 -44M350 179l1 5M351 228l0 -44M351 228l1 6"/>
<path stroke="red" d="M352 272l0 -38M352 272l1 5M353 321l0 -44M353 321l1 6M354 371l0 -44M354 371l1 5M355 420l0 -44M355 420l1 6M356 464l0 -38M356 464l1 6M357 514l0 -44M357 514l1 5M358 563l0 -44M358 563l1 5M359 607l0 -39M359 607l1 5M360 659l0 -47"/>
<path stroke="red" d="M360 659l47 0 0 -47 1 -5 0 -39 1 -5 0 -44 1 -5 0 -44 1 -6 0 -38 1 -6 0 -44 1 -5 0 -44 1 -6 0 -44 1 -5 0 -38 1 -6 0 -44 1 -5 0 -44 1 -6 0 -19 46 0M464 129l0 -19M464 129l1 6M465 179l0 -44M465 179l1 5M466 228l0 -44M466 228l1 6"/>
<path stroke="red" d="M467 272l0 -38M467 272l1 5M468 321l0 -44M468 321l1 6M469 371l0 -44M469 371l1 5M470 420l0 -44M470 420l1 6M471 464l0 -38M471 464l1 6M472 514l0 -44M472 514l1 5M473 563l0 -44M473 563l1 5M474 607l0 -39M474 607l1 5M475 656l0 -44"/>
<path stroke="red" d="M475 656l1 3 46 0 0 -47 1 -5 0 -39 1 -5 0 -44 1 -5 0 -44 1 -6 0 -38 1 -6 0 -44 1 -5 0 -44 1 -6 0 -44 1 -5 0 -38 1 -6 0 -44 1 -5 0 -44 1 -6 0 -19 46 0M579 129l0 -19M579 129l1 6M580 179l0 -44M580 179l1 5M581 228l0 -44M581 228l1 6"/>
<path stroke="red" d="M582 272l0 -38M582 272l1 5M583 321l0 -44M583 321l1 6M584 371l0 -44M584 371l1 5M585 420l0 -44M585 420l1 6M586 464l0 -38M586 464l1 6M587 514l0 -44M587 514l1 5M588 563l0 -44M588 563l1 5M589 607l0 -39M589 607l1 5M590 656l0 -44"/>
<path stroke="red" d="M590 656l1 3 46 0 0 -47 1 -5 0 -39 1 -5 0 -44 1 -5 0 -44 1 -6 0 -38 1 -6 0 -44 1 -5 0 -44 1 -6 0 -44 1 -5 0 -38 1 -6 0 -44 1 -5 0 -44 1 -6 0 -19 46 0M694 129l0 -19M694 129l1 6M695 179l0 -44M695 179l1 5M696 228l0 -44M696 228l1 6"/>
<path stroke="red" d="M697 272l0 -38M697 272l1 5M698 321l0 -44M698 321l1 6M699 371l0 -44M699 371l1 5M700 420l0 -44M700 420l1 6M701 464l0 -38M701 464l1 6M702 514l0 -44M702 514l1 5M703 563l0 -44M703 563l1 5M704 607l0 -39M704 607l1 5M705 656l0 -44"/>
<path stroke="red" d="M705 656l1 3 45 0 1 -1 0 -46 1 -5 0 -39 1 -5 0 -44 1 -5 0 -44 1 -6 0 -38 1 -6 0 -44 1 -5 0 -44 1 -6 0 -44 1 -5 0 -38 1 -6 0 -44 1 -5 0 -44 1 -6 0 -19 46 0M809 129l0 -19M809 129l1 6M810 179l0 -44M810 179l1 5M811 228l0 -44"/>
<path stroke="red" d="M811 228l1 6M812 272l0 -38M812 272l1 5M813 321l0 -44M813 321l1 6M814 371l0 -44M814 371l1 5M815 420l0 -44M815 420l1 6M816 464l0 -38M816 464l1 6M817 514l0 -44M817 514l1 5M818 563l0 -44M818 563l1 5M819 607l0 -39M819 607l1 5"/>
<path stroke="red" d="M820 659l0 -47M820 659l47 0 0 -47 1 -5 0 -39 1 -5 0 -44 1 -5 0 -44 1 -6 0 -38 1 -6 0 -44 1 -5 0 -44 1 -6 0 -44 1 -5 0 -38 1 -6 0 -44 1 -5 0 -44 1 -6 0 -19 35 0"/>
<path stroke="blue" d="M50 23l46 0"/>
<text stroke="none" fill="white" font-size="16" x="106" y="32">
v(D)
</text>
<path stroke="blue" d="M50 659l288 0 0 -47 1 -5 0 -39 1 -5 0 -44 1 -5 0 -44 1 -6 0 -38 1 -6 0 -44 1 -5 0 -44 1 -6 0 -44 1 -5 0 -38 1 -6 0 -44 1 -5 0 -44 1 -6 0 -19 161 0M510 129l0 -19M510 129l1 6M511 179l0 -44M511 179l1 5M512 228l0 -44M512 228l1 6"/>
<path stroke="blue" d="M513 272l0 -38M513 272l1 5M514 321l0 -44M514 321l1 6M515 371l0 -44M515 371l1 5M516 420l0 -44M516 420l1 6M517 464l0 -38M517 464l1 6M518 514l0 -44M518 514l1 5M519 563l0 -44M519 563l1 5M520 607l0 -39M520 607l1 5M521 656l0 -44"/>
<path stroke="blue" d="M521 656l1 3 391 0"/>
<path stroke="#FFA500" d="M460 39l46 0"/>
<text stroke="none" fill="white" font-size="16" x="516" y="48">
v(D_NOT)
</text>
<path stroke="#FFA500" d="M50 110l12 0 0 -2 4 0M66 109l0 -1M66 109l1 1M67 111l0 -1 1 0 0 -1 1 0 1 1 53 0M123 111l0 -1M123 111l8 0 0 -1 46 0 0 -1 7 0 1 1 53 0M238 111l0 -1M238 111l8 0 0 -1 46 0 0 -1 7 0 1 1 38 0 0 -2 2 0 0 -1 1 0M341 108l0 -1"/>
<path stroke="#FFA500" d="M341 108l1 0M342 127l0 -19M342 127l1 8M343 383l0 -248M343 383l1 56M344 654l0 -215M344 654l1 1M345 658l0 -3M345 658l2 0M347 659l0 -1M347 659l6 0 0 -1 1 0 0 -1 1 -1 0 -2 1 0 0 -3 1 0 0 -1M357 651l1 1M358 657l0 -5M358 657l1 1"/>
<path stroke="#FFA500" d="M359 659l0 -1M359 659l1 0 0 -1 1 0M361 659l0 -1M361 659l153 0 0 -2 1 0 0 -12 1 -3 0 -145 1 -33 0 -147 1 -6 0 -41 1 -4 0 -41 1 -8 0 -70 1 -7 0 -26 1 0 0 -6 4 0M526 111l0 -3M526 111l1 1M527 115l0 -3M527 113l1 0 0 -3 55 0"/>
<path stroke="#FFA500" d="M583 111l0 -1M583 111l8 0 0 -1 46 0 0 -1 7 0 1 1 53 0M698 111l0 -1M698 111l8 0 0 -1 46 0 0 -1 7 0 1 1 53 0M813 111l0 -1M813 111l8 0 0 -1 46 0 0 -1 7 0 1 1 38 0"/>
<path stroke="green" d="M50 39l46 0"/>
<text stroke="none" fill="white" font-size="16" x="106" y="48">
v(Q1)
</text>
<path stroke="green" d="M50 659l16 0 0 -1 1 0 0 -1M67 658l2 0M69 659l0 -1M69 659l53 0M122 660l0 -1M122 660l3 0 0 -1 57 0 0 -1 2 0M184 659l0 -1M184 659l53 0M237 660l0 -1M237 660l3 0 0 -1 57 0 0 -1 2 0M299 659l0 -1M299 659l112 0 0 -2 1 -1 0 -5"/>
<path stroke="green" d="M412 651l1 -1 0 -13 1 -3 0 -87 1 -12 0 -67 1 -6 0 -35 1 -4 0 -31 1 -4 0 -22 1 -2 0 -7 1 0 0 -4 1 0 0 -3 1 0 0 -3 1 0 0 -2 1 -1 0 -2 1 0 0 -1 1 0 0 -2 1 0 0 -1 1 0 0 -2 1 0 0 -1 1 0 0 -1 1 0 0 -1 1 0 0 -1 1 0 1 -1 1 0 0 -1"/>
<path stroke="green" d="M435 330l1 0 0 -1 2 0 0 -1 1 0 1 -1 1 0 0 -1 2 0 0 -1 3 0 0 -1 2 0 0 -1 3 0 0 -1 3 0 0 -1 3 0 0 -1 3 0 1 -1 3 0M464 320l0 -1M464 320l1 1M465 324l0 -3M465 324l1 1M466 328l0 -3M466 328l1 1M467 332l0 -3M467 332l1 1M468 337l0 -4"/>
<path stroke="green" d="M468 337l1 0 0 -12 1 -5 0 -79 1 -14 0 -60 1 -1M472 171l0 -6M472 171l1 1M473 183l0 -11M473 183l1 1M474 185l0 -7 1 -4 0 -40 1 -2 0 -19 1 0 0 -2 1 0 0 -1 44 0 0 -4 2 0 0 -1 2 0M526 107l0 -2M526 107l1 1M527 116l0 -8M527 116l1 8"/>
<path stroke="green" d="M528 251l0 -127M528 251l1 24M529 597l0 -322M529 597l1 26M530 656l0 -33M530 656l1 0M531 657l0 -1M531 657l2 0M533 659l0 -2M533 659l46 0M579 660l0 -1M579 660l4 0 0 -1 1 -1 0 -4 1 0 0 -4 2 0 0 -3 1 0 0 -1M588 647l1 0M589 653l0 -6"/>
<path stroke="green" d="M589 653l1 1M590 658l0 -4M590 658l1 0M591 659l0 -1M591 659l51 0 1 -1 1 0 1 1 52 0M697 660l0 -1M697 660l3 0 0 -1 57 0 0 -1 2 0M759 659l0 -1M759 659l53 0M812 660l0 -1M812 660l3 0 0 -1 57 0 0 -1 2 0M874 659l0 -1M874 659l39 0"/>
<path stroke="#FFC0C5" d="M460 55l46 0"/>
<text stroke="none" fill="white" font-size="16" x="516" y="64">
v(Q2)
</text>
<path stroke="#FFC0C5" d="M50 659l16 0 0 -1 1 0 0 -1M67 658l2 0M69 659l0 -1M69 659l53 0M122 660l0 -1M122 660l3 0 0 -1 57 0 0 -1 2 0M184 659l0 -1M184 659l53 0M237 660l0 -1M237 660l3 0 0 -1 57 0 0 -1 2 0M299 659l0 -1M299 659l53 0M352 660l0 -1M352 660l3 0"/>
<path stroke="#FFC0C5" d="M355 660l0 -1 57 0 0 -1 1 0M413 659l0 -1 1 0M414 659l0 -1M414 659l53 0M467 660l0 -1M467 660l3 0 0 -1 56 0 0 -2 1 -1 0 -5 1 -1 0 -13 1 -3 0 -87 1 -12 0 -67 1 -6 0 -35 1 -4 0 -31 1 -4 0 -22 1 -2 0 -7 1 0 0 -4 1 0 0 -3"/>
<path stroke="#FFC0C5" d="M536 350l1 0 0 -3 1 0 0 -2 1 -1 0 -2 1 0 0 -1 1 0 0 -2 1 0 0 -1 1 0 0 -2 1 0 0 -1 1 0 0 -1 1 0 0 -1 1 0 0 -1 1 0 1 -1 1 0 0 -1 1 0 0 -1 2 0 0 -1 1 0 1 -1 1 0 0 -1 2 0 0 -1 3 0 0 -1 2 0 0 -1 3 0 0 -1 3 0 0 -1 3 0 0 -1"/>
<path stroke="#FFC0C5" d="M572 320l3 0 1 -1 3 0M579 320l0 -1M579 320l1 1M580 324l0 -3M580 324l1 1M581 328l0 -3M581 328l1 1M582 332l0 -3M582 332l1 1M583 337l0 -4M583 337l1 0 0 -12 1 -5 0 -79 1 -14 0 -60 1 -1M587 171l0 -6M587 171l1 1M588 183l0 -11"/>
<path stroke="#FFC0C5" d="M588 183l1 1M589 185l0 -7 1 -4 0 -40 1 -2 0 -19 1 0 0 -2 1 0 0 -1 44 0 0 -4 2 0 0 -1 2 0M641 107l0 -2M641 107l1 1M642 119l0 -11M642 119l1 9M643 255l0 -127M643 255l1 25M644 601l0 -321M644 601l1 24M645 656l0 -31M645 656l1 0"/>
<path stroke="#FFC0C5" d="M646 657l0 -1M646 657l2 0M648 659l0 -2M648 659l46 0M694 660l0 -1M694 660l4 0 0 -1 1 -1 0 -4 1 0 0 -4 2 0 0 -3 1 0 0 -1M703 647l1 0M704 653l0 -6M704 653l1 1M705 658l0 -4M705 658l1 0M706 659l0 -1M706 659l51 0 1 -1 1 0"/>
<path stroke="#FFC0C5" d="M759 658l1 1 52 0 1 1 2 0 0 -1 57 0 0 -1 2 0M874 659l0 -1M874 659l39 0"/>
<path stroke="#A52A2A" d="M50 55l46 0"/>
<text stroke="none" fill="white" font-size="16" x="106" y="64">
v(Q3)
</text>
<path stroke="#A52A2A" d="M50 659l16 0 0 -1 1 0 0 -1M67 658l2 0M69 659l0 -1M69 659l53 0M122 660l0 -1M122 660l3 0 0 -1 57 0 0 -1 2 0M184 659l0 -1M184 659l53 0M237 660l0 -1M237 660l3 0 0 -1 57 0 0 -1 2 0M299 659l0 -1M299 659l53 0M352 660l0 -1M352 660l3 0"/>
<path stroke="#A52A2A" d="M355 660l0 -1 57 0 0 -1 2 0M414 659l0 -1M414 659l53 0M467 660l0 -1M467 660l3 0 0 -1 57 0 0 -1 1 0M528 659l0 -1 1 0M529 659l0 -1M529 659l53 0M582 660l0 -1M582 660l3 0 0 -1 56 0 0 -2 1 -1 0 -5 1 -1 0 -13 1 -3 0 -87 1 -12"/>
<path stroke="#A52A2A" d="M645 535l0 -67 1 -6 0 -35 1 -4 0 -31 1 -4 0 -22 1 -2 0 -7 1 0 0 -4 1 0 0 -3 1 0 0 -3 1 0 0 -2 1 -1 0 -2 1 0 0 -1 1 0 0 -2 1 0 0 -1 1 0 0 -2 1 0 0 -1 1 0 0 -1 1 0 0 -1 1 0 0 -1 1 0 1 -1 1 0 0 -1 1 0 0 -1 2 0 0 -1 1 0"/>
<path stroke="#A52A2A" d="M669 328l1 -1 1 0 0 -1 2 0 0 -1 3 0 0 -1 2 0 0 -1 3 0 0 -1 3 0 0 -1 3 0 0 -1 3 0 1 -1 3 0M694 320l0 -1M694 320l1 1M695 324l0 -3M695 324l1 1M696 328l0 -3M696 328l1 1M697 332l0 -3M697 332l1 1M698 337l0 -4M698 337l1 0 0 -12"/>
<path stroke="#A52A2A" d="M699 325l1 -5 0 -79 1 -14 0 -60 1 -1M702 171l0 -6M702 171l1 1M703 183l0 -11M703 183l1 1M704 185l0 -7 1 -4 0 -40 1 -2 0 -19 1 0 0 -2 1 0 0 -1 44 0 0 -4 2 0 0 -1 2 0M756 107l0 -2M756 107l1 1M757 119l0 -11M757 119l1 9M758 255l0 -127"/>
<path stroke="#A52A2A" d="M758 255l1 25M759 602l0 -322M759 602l1 23M760 656l0 -31M760 656l1 0M761 657l0 -1M761 657l2 0M763 659l0 -2M763 659l46 0M809 660l0 -1M809 660l4 0 0 -1 1 -1 0 -4 1 0 0 -4 2 0 0 -3 1 0 0 -1 1 1M819 653l0 -6M819 653l1 1M820 658l0 -4"/>
<path stroke="#A52A2A" d="M820 658l1 0M821 659l0 -1M821 659l51 0 1 -1 1 0 1 1 38 0"/>
<path stroke="#F0E68C" d="M460 71l46 0"/>
<text stroke="none" fill="white" font-size="16" x="516" y="80">
v(Q)
</text>
<path stroke="#F0E68C" d="M50 659l16 0 0 -1 1 0 0 -1M67 658l1 0M68 659l0 -1M68 659l55 0M123 660l0 -1M123 660l2 0 0 -1 57 0 0 -1M182 659l56 0M238 660l0 -1M238 660l2 0 0 -1 57 0 0 -1M297 659l56 0M353 660l0 -1M353 660l2 0 0 -1 57 0 0 -1M412 659l56 0"/>
<path stroke="#F0E68C" d="M468 660l0 -1M468 660l2 0 0 -1 57 0 0 -1M527 659l56 0M583 660l0 -1M583 660l2 0 0 -1 57 0 0 -1M642 659l56 0M698 660l0 -1M698 660l2 0 0 -1 56 0 0 -2 1 -1 0 -5 1 -1 0 -14 1 -4 0 -95 1 -14 0 -61 1 -5 0 -33 1 -4 0 -30 1 -4"/>
<path stroke="#F0E68C" d="M763 386l0 -21 1 -2 0 -6 1 -1 0 -4 1 0 0 -3 1 0 0 -3 1 0 0 -2 1 0 0 -2 1 -1 0 -1 1 0 0 -2 1 0 0 -1 1 0 0 -1 1 0 0 -1 1 -1 0 -1 1 0 1 -1 1 0 0 -1 1 0 0 -1 1 0 0 -1 2 0 0 -1 1 0 0 -1 2 0 0 -1 2 0 0 -1 2 0 0 -1 2 0 0 -1"/>
<path stroke="#F0E68C" d="M791 323l3 0 0 -1 3 0 0 -1 3 0 0 -1 3 0 0 -1 4 0 0 -1 2 0M809 320l0 -2M809 320l1 0M810 323l0 -3M810 323l1 1M811 327l0 -3M811 327l1 1M812 331l0 -3M812 331l1 1M813 336l0 -4M813 336l1 0 0 -13 1 -5 0 -87 1 -16 0 -82 1 -5"/>
<path stroke="#F0E68C" d="M817 128l0 -14 1 -1 0 -1 3 0 0 -2 46 0 0 -2 3 0 0 -1 1 0 0 -1 1 0M872 113l0 -10M872 113l1 11M873 264l0 -140M873 264l1 27M874 623l0 -332M874 623l1 15M875 657l0 -19M875 657l3 0M878 659l0 -2M878 659l35 0"/>
<path stroke="#DDA0DD" d="M50 71l46 0"/>
<text stroke="none" fill="white" font-size="16" x="106" y="80">
v(Q_NOT)
</text>
<path stroke="#DDA0DD" d="M50 110l12 0 0 -2 3 0 0 -1 1 0 0 -1 1 0 0 -2 1 0 0 -4 1 -1 0 -5 1 -1 0 -4 1 0 0 -4 1 0 0 -3 1 0 0 -1 46 0M119 82l0 -1M119 82l1 0M120 85l0 -3M120 85l1 0M121 89l0 -4M121 89l1 0M122 94l0 -5M122 94l1 0M123 101l0 -7M123 101l1 1"/>
<path stroke="#DDA0DD" d="M124 111l0 -9M124 111l1 1M125 115l0 -3M125 115l1 0 0 -1 1 0 0 -1 1 0 0 -1 3 0 0 -2 46 0 0 -2 3 0 0 -1 1 0 0 -1 1 0 0 -2 1 0 0 -4 1 -1 0 -5 1 -1 0 -4 1 0 0 -4 1 0 0 -3 1 0 0 -2 3 0M191 81l0 -1M191 81l43 0M234 82l0 -1"/>
<path stroke="#DDA0DD" d="M234 82l1 0M235 85l0 -3M235 85l1 0M236 89l0 -4M236 89l1 0M237 93l0 -4M237 93l1 1M238 101l0 -7M238 101l1 1M239 111l0 -9M239 111l1 1M240 115l0 -3M240 115l1 0 0 -1 1 0 0 -1 1 0 0 -1 3 0 0 -2 46 0 0 -2 3 0 0 -1 1 0 0 -1"/>
<path stroke="#DDA0DD" d="M296 106l1 0 0 -2 1 0 0 -4 1 -1 0 -5 1 -1 0 -4 1 0 0 -4 1 0 0 -3 1 0 0 -2 3 0M306 81l0 -1M306 81l43 0M349 82l0 -1M349 82l1 0M350 85l0 -3M350 85l1 0M351 89l0 -4M351 89l1 0M352 93l0 -4M352 93l1 1M353 101l0 -7M353 101l1 1"/>
<path stroke="#DDA0DD" d="M354 111l0 -9M354 111l1 1M355 115l0 -3M355 115l1 0 0 -1 1 0 0 -1 1 0 0 -1 3 0 0 -2 46 0 0 -2 3 0 0 -1 1 0 0 -1 1 0 0 -2 1 0 0 -4 1 -1 0 -5 1 -1 0 -4 1 0 0 -4 1 0 0 -3 1 0 0 -2 3 0M421 81l0 -1M421 81l43 0M464 82l0 -1"/>
<path stroke="#DDA0DD" d="M464 82l1 0M465 85l0 -3M465 85l1 0M466 89l0 -4M466 89l1 0M467 93l0 -4M467 93l1 1M468 101l0 -7M468 101l1 1M469 111l0 -9M469 111l1 1M470 115l0 -3M470 115l1 0 0 -1 1 0 0 -1 1 0 0 -1 3 0 0 -2 46 0 0 -2 3 0 0 -1 1 0 0 -1"/>
<path stroke="#DDA0DD" d="M526 106l1 0 0 -2 1 0 0 -4 1 -1 0 -5 1 -1 0 -4 1 0 0 -4 1 0 0 -3 1 0 0 -2 3 0M536 81l0 -1M536 81l43 0M579 82l0 -1M579 82l1 0M580 85l0 -3M580 85l1 0M581 89l0 -4M581 89l1 0M582 93l0 -4M582 93l1 1M583 101l0 -7M583 101l1 1"/>
<path stroke="#DDA0DD" d="M584 111l0 -9M584 111l1 1M585 115l0 -3M585 115l1 0 0 -1 1 0 0 -1 1 0 0 -1 3 0 0 -2 46 0 0 -2 3 0 0 -1 1 0 0 -1 1 0 0 -2 1 0 0 -4 1 -1 0 -5 1 -1 0 -4 1 0 0 -4 1 0 0 -3 1 0 0 -2 4 0M652 81l0 -1M652 81l42 0M694 82l0 -1"/>
<path stroke="#DDA0DD" d="M694 82l1 0M695 85l0 -3M695 85l1 0M696 89l0 -4M696 89l1 0M697 93l0 -4M697 93l1 1M698 101l0 -7M698 101l1 1M699 111l0 -9M699 111l1 1M700 115l0 -3M700 115l1 0 0 -1 1 0 0 -1 1 0 0 -1 3 0 0 -2 46 0 0 -2 3 0 0 -1 1 0 0 -1"/>
<path stroke="#DDA0DD" d="M756 106l1 0M757 113l0 -10M757 113l1 11M758 264l0 -140M758 264l1 27M759 622l0 -331M759 622l1 16M760 656l0 -18M760 656l1 1 2 0M763 659l0 -2M763 659l46 0M809 660l0 -1M809 660l5 0 0 -1 1 0 0 -2 1 0M816 658l0 -1M816 658l1 1"/>
<path stroke="#DDA0DD" d="M817 659l54 0 0 -2 1 -1 0 -5 1 -1 0 -14 1 -4 0 -95 1 -14 0 -61 1 -5 0 -33 1 -4 0 -30 1 -4 0 -21 1 -2 0 -6 1 -1 0 -4 1 0 0 -3 1 0 0 -3 1 0 0 -2 1 0 0 -2 1 -1 0 -1 1 0 0 -2 1 0 0 -1 1 0 0 -1 1 0 0 -1 1 -1 0 -1 1 0 1 -1"/>
<path stroke="#DDA0DD" d="M892 332l1 0 0 -1 1 0 0 -1 1 0 0 -1 2 0 0 -1 1 0 0 -1 2 0 0 -1 2 0 0 -1 2 0 0 -1 2 0 0 -1 3 0 0 -1 3 0 0 -1 1 0"/>
</svg>
