<?xml version="1.0" standalone="yes"?>
<!DOCTYPE svg PUBLIC "-//W3C//DTD SVG 1.1//EN"
 "http://www.w3.org/Graphics/SVG/1.1/DTD/svg11.dtd">
<svg xmlns="http://www.w3.org/2000/svg" version="1.1"
  width="100%" height="100%" viewBox="0 0 1024 768"
  style="fill: none; font-family: Helvetica;
 font: Helvetica;
">

<!-- Creator: NGspice -->

<rect x="0" y="0" width="1024" height="768" fill="black" stroke="none"/>
<text stroke="none" fill="white" font-size="16" x="358" y="752">
time
</text>
<text stroke="none" fill="white" font-size="16" x="10" y="16">
tran1: ** sch_path: /home/lxbtlr/mad/miniproject1/mp1_lab.sch
</text>
<path stroke="white" d="M50 720l0 -670"/>
<text stroke="none" fill="white" font-size="16" x="35" y="728">
0.0
</text>
<path stroke="white" stroke-dasharray="1,2" d="M142 720l0 -670"/>
<text stroke="none" fill="white" font-size="16" x="122" y="728">
10.0
</text>
<path stroke="white" stroke-dasharray="1,2" d="M234 720l0 -670"/>
<text stroke="none" fill="white" font-size="16" x="214" y="728">
20.0
</text>
<path stroke="white" stroke-dasharray="1,2" d="M326 720l0 -670"/>
<text stroke="none" fill="white" font-size="16" x="306" y="728">
30.0
</text>
<path stroke="white" stroke-dasharray="1,2" d="M418 720l0 -670"/>
<text stroke="none" fill="white" font-size="16" x="398" y="728">
40.0
</text>
<path stroke="white" stroke-dasharray="1,2" d="M510 720l0 -670"/>
<text stroke="none" fill="white" font-size="16" x="490" y="728">
50.0
</text>
<path stroke="white" stroke-dasharray="1,2" d="M602 720l0 -670"/>
<text stroke="none" fill="white" font-size="16" x="582" y="728">
60.0
</text>
<path stroke="white" stroke-dasharray="1,2" d="M694 720l0 -670"/>
<text stroke="none" fill="white" font-size="16" x="674" y="728">
70.0
</text>
<path stroke="white" stroke-dasharray="1,2" d="M786 720l0 -670"/>
<text stroke="none" fill="white" font-size="16" x="766" y="728">
80.0
</text>
<path stroke="white" stroke-dasharray="1,2" d="M878 720l0 -670"/>
<text stroke="none" fill="white" font-size="16" x="858" y="728">
90.0
</text>
<path stroke="white" stroke-dasharray="1,2" d="M970 720l0 -670"/>
<text stroke="none" fill="white" font-size="16" x="945" y="728">
100.0
</text>
<text stroke="none" fill="white" font-size="16" x="614" y="752">
ns
</text>
<path stroke="white" stroke-dasharray="1,2" d="M50 720l920 0"/>
<text stroke="none" fill="white" font-size="16" x="8" y="728">
-0.2
</text>
<path stroke="white" d="M50 653l920 0"/>
<text stroke="none" fill="white" font-size="16" x="18" y="661">
0.0
</text>
<path stroke="white" stroke-dasharray="1,2" d="M50 586l920 0"/>
<text stroke="none" fill="white" font-size="16" x="18" y="594">
0.2
</text>
<path stroke="white" stroke-dasharray="1,2" d="M50 519l920 0"/>
<text stroke="none" fill="white" font-size="16" x="18" y="527">
0.4
</text>
<path stroke="white" stroke-dasharray="1,2" d="M50 452l920 0"/>
<text stroke="none" fill="white" font-size="16" x="18" y="460">
0.6
</text>
<path stroke="white" stroke-dasharray="1,2" d="M50 385l920 0"/>
<text stroke="none" fill="white" font-size="16" x="18" y="393">
0.8
</text>
<path stroke="white" stroke-dasharray="1,2" d="M50 318l920 0"/>
<text stroke="none" fill="white" font-size="16" x="18" y="326">
1.0
</text>
<path stroke="white" stroke-dasharray="1,2" d="M50 251l920 0"/>
<text stroke="none" fill="white" font-size="16" x="18" y="259">
1.2
</text>
<path stroke="white" stroke-dasharray="1,2" d="M50 184l920 0"/>
<text stroke="none" fill="white" font-size="16" x="18" y="192">
1.4
</text>
<path stroke="white" stroke-dasharray="1,2" d="M50 117l920 0"/>
<text stroke="none" fill="white" font-size="16" x="18" y="125">
1.6
</text>
<path stroke="white" stroke-dasharray="1,2" d="M50 50l920 0"/>
<text stroke="none" fill="white" font-size="16" x="18" y="58">
1.8
</text>
<text stroke="none" fill="white" font-size="16" x="10" y="32">
V
</text>
<path stroke="red" d="M460 23l46 0"/>
<text stroke="none" fill="white" font-size="16" x="516" y="32">
v(a)
</text>
<path stroke="red" d="M50 653l9 0 0 -15 1 -6 0 -60 1 -6 0 -61 1 -6 0 -60 1 -6 0 -60 1 -6 0 -61 1 -6 0 -54 1 -6 0 -60 1 -6 0 -61 1 -6 0 -57 37 0M105 65l0 -15M105 65l1 6M106 131l0 -60M106 131l1 6M107 198l0 -61M107 198l1 6M108 264l0 -60M108 264l1 6"/>
<path stroke="red" d="M109 330l0 -60M109 330l1 6M110 397l0 -61M110 397l1 6M111 457l0 -54M111 457l1 6M112 523l0 -60M112 523l1 6M113 590l0 -61M113 590l1 6M114 653l0 -57M114 653l56 0 0 -57 1 -6 0 -61 1 -6 0 -60 1 -6 0 -54 1 -6 0 -61 1 -6 0 -60 1 -6"/>
<path stroke="red" d="M176 264l0 -60 1 -6 0 -61 1 -6 0 -60 1 -6 0 -15 37 0M216 107l0 -57M216 107l1 6M217 174l0 -61M217 174l1 6M218 240l0 -60M218 240l1 6M219 300l0 -54M219 300l1 6M220 367l0 -61M220 367l1 6M221 433l0 -60M221 433l1 6M222 499l0 -60"/>
<path stroke="red" d="M222 499l1 6M223 566l0 -61M223 566l1 6M224 632l0 -60M224 632l1 6M225 653l0 -15M225 653l55 0 0 -27 1 -6 0 -60 1 -6 0 -61 1 -6 0 -60 1 -6 0 -60 1 -6 0 -61 1 -6 0 -60 1 -6 0 -60 1 -6 0 -55 1 -6 0 -45 37 0M326 77l0 -27M326 77l1 6"/>
<path stroke="red" d="M327 143l0 -60M327 143l1 6M328 210l0 -61M328 210l1 6M329 276l0 -60M329 276l1 6M330 342l0 -60M330 342l1 6M331 409l0 -61M331 409l1 6M332 475l0 -60M332 475l1 6M333 541l0 -60M333 541l1 6M334 602l0 -55M334 602l1 6M335 653l0 -45"/>
<path stroke="red" d="M335 653l55 0 0 -4 1 -5 0 -60 1 -6 0 -61 1 -6 0 -60 1 -6 0 -60 1 -6 0 -55 1 -6 0 -60 1 -6 0 -60 1 -6 0 -61 1 -6 0 -60 1 -6 0 -3 36 0M436 54l0 -4M436 54l1 5M437 119l0 -60M437 119l1 6M438 186l0 -61M438 186l1 6M439 252l0 -60"/>
<path stroke="red" d="M439 252l1 6M440 318l0 -60M440 318l1 6M441 379l0 -55M441 379l1 6M442 445l0 -60M442 445l1 6M443 511l0 -60M443 511l1 6M444 578l0 -61M444 578l1 6M445 644l0 -60M445 644l1 6M446 653l0 -3M446 653l55 0 0 -45 1 -6 0 -55 1 -6 0 -60"/>
<path stroke="red" d="M503 481l1 -6 0 -60 1 -6 0 -61 1 -6 0 -60 1 -6 0 -60 1 -6 0 -61 1 -6 0 -60 1 -6 0 -27 37 0M547 95l0 -45M547 95l1 6M548 156l0 -55M548 156l1 6M549 222l0 -60M549 222l1 6M550 288l0 -60M550 288l1 6M551 355l0 -61M551 355l1 6M552 421l0 -60"/>
<path stroke="red" d="M552 421l1 6M553 487l0 -60M553 487l1 6M554 554l0 -61M554 554l1 6M555 620l0 -60M555 620l1 6M556 653l0 -27M556 653l55 0 0 -15 1 -6 0 -60 1 -6 0 -61 1 -6 0 -60 1 -6 0 -60 1 -6 0 -61 1 -6 0 -54 1 -6 0 -60 1 -6 0 -61 1 -6 0 -57"/>
<path stroke="red" d="M620 50l37 0M657 65l0 -15M657 65l1 6M658 131l0 -60M658 131l1 6M659 198l0 -61M659 198l1 6M660 264l0 -60M660 264l1 6M661 330l0 -60M661 330l1 6M662 397l0 -61M662 397l1 6M663 457l0 -54M663 457l1 6M664 523l0 -60M664 523l1 6M665 590l0 -61"/>
<path stroke="red" d="M665 590l1 6M666 653l0 -57M666 653l56 0 0 -57 1 -6 0 -61 1 -6 0 -60 1 -6 0 -54 1 -6 0 -61 1 -6 0 -60 1 -6 0 -60 1 -6 0 -61 1 -6 0 -60 1 -6 0 -15 37 0M768 107l0 -57M768 107l1 6M769 174l0 -61M769 174l1 6M770 240l0 -60M770 240l1 6"/>
<path stroke="red" d="M771 300l0 -54M771 300l1 6M772 367l0 -61M772 367l1 6M773 433l0 -60M773 433l1 6M774 499l0 -60M774 499l1 6M775 566l0 -61M775 566l1 6M776 632l0 -60M776 632l1 6M777 653l0 -15M777 653l55 0 0 -27 1 -6 0 -60 1 -6 0 -61 1 -6 0 -60"/>
<path stroke="red" d="M835 427l1 -6 0 -60 1 -6 0 -61 1 -6 0 -60 1 -6 0 -60 1 -6 0 -55 1 -6 0 -45 37 0M878 77l0 -27M878 77l1 6M879 143l0 -60M879 143l1 6M880 210l0 -61M880 210l1 6M881 276l0 -60M881 276l1 6M882 342l0 -60M882 342l1 6M883 409l0 -61"/>
<path stroke="red" d="M883 409l1 6M884 475l0 -60M884 475l1 6M885 541l0 -60M885 541l1 6M886 602l0 -55M886 602l1 6M887 653l0 -45M887 653l55 0 0 -4 1 -5 0 -60 1 -6 0 -61 1 -6 0 -60 1 -6 0 -60 1 -6 0 -55 1 -6 0 -60 1 -6 0 -60 1 -6 0 -61 1 -6 0 -60"/>
<path stroke="red" d="M951 59l1 -6 0 -3 18 0"/>
<path stroke="blue" d="M50 23l46 0"/>
<text stroke="none" fill="white" font-size="16" x="106" y="32">
v(b)
</text>
<path stroke="blue" d="M50 653l9 0 0 -15 1 -6 0 -60 1 -6 0 -61 1 -6 0 -60 1 -6 0 -60 1 -6 0 -61 1 -6 0 -54 1 -6 0 -60 1 -6 0 -61 1 -6 0 -57 56 0M124 79l0 -29M124 79l1 3M125 112l0 -30M125 112l1 3M126 145l0 -30M126 145l1 3M127 175l0 -27M127 175l1 3"/>
<path stroke="blue" d="M128 208l0 -30M128 208l1 3M129 241l0 -30M129 241l1 3M130 275l0 -31M130 275l1 3M131 308l0 -30M131 308l1 3M132 341l0 -30M132 341l1 3M133 374l0 -30M133 374l1 3M134 404l0 -27M134 404l1 3M135 437l0 -30M135 437l1 3M136 471l0 -31"/>
<path stroke="blue" d="M136 471l1 3M137 504l0 -30M137 504l1 3M138 537l0 -30M138 537l1 3M139 570l0 -30M139 570l1 3M140 603l0 -30M140 603l1 3M141 636l0 -30M141 636l1 3M142 653l0 -14M142 653l28 0 0 -57 1 -6 0 -61 1 -6 0 -60 1 -6 0 -54 1 -6 0 -61"/>
<path stroke="blue" d="M174 336l1 -6 0 -60 1 -6 0 -60 1 -6 0 -61 1 -6 0 -60 1 -6 0 -15 55 0M234 64l0 -14M234 64l1 3M235 97l0 -30M235 97l1 3M236 130l0 -30M236 130l1 3M237 163l0 -30M237 163l1 3M238 196l0 -30M238 196l1 3M239 229l0 -30M239 229l1 3"/>
<path stroke="blue" d="M240 263l0 -31M240 263l1 3M241 296l0 -30M241 296l1 3M242 326l0 -27M242 326l1 3M243 359l0 -30M243 359l1 3M244 392l0 -30M244 392l1 3M245 425l0 -30M245 425l1 3M246 459l0 -31M246 459l1 3M247 492l0 -30M247 492l1 3M248 525l0 -30"/>
<path stroke="blue" d="M248 525l1 3M249 555l0 -27M249 555l1 3M250 588l0 -30M250 588l1 3M251 621l0 -30M251 621l1 3M252 653l0 -29M252 653l28 0 0 -27 1 -6 0 -60 1 -6 0 -61 1 -6 0 -60 1 -6 0 -60 1 -6 0 -61 1 -6 0 -60 1 -6 0 -60 1 -6 0 -55 1 -6 0 -45"/>
<path stroke="blue" d="M289 50l55 0M344 52l0 -2M344 52l1 3M345 85l0 -30M345 85l1 3M346 118l0 -30M346 118l1 3M347 151l0 -30M347 151l1 3M348 184l0 -30M348 184l1 3M349 214l0 -27M349 214l1 3M350 247l0 -30M350 247l1 3M351 281l0 -31M351 281l1 3M352 314l0 -30"/>
<path stroke="blue" d="M352 314l1 3M353 347l0 -30M353 347l1 3M354 380l0 -30M354 380l1 3M355 413l0 -30M355 413l1 3M356 446l0 -30M356 446l1 3M357 477l0 -28M357 477l1 3M358 510l0 -30M358 510l1 3M359 543l0 -30M359 543l1 3M360 576l0 -30M360 576l1 3"/>
<path stroke="blue" d="M361 609l0 -30M361 609l1 3M362 642l0 -30M362 642l1 3M363 653l0 -8M363 653l27 0 0 -4 1 -5 0 -60 1 -6 0 -61 1 -6 0 -60 1 -6 0 -60 1 -6 0 -55 1 -6 0 -60 1 -6 0 -60 1 -6 0 -61 1 -6 0 -60 1 -6 0 -3 55 0M455 73l0 -23M455 73l1 3"/>
<path stroke="blue" d="M456 103l0 -27M456 103l1 3M457 136l0 -30M457 136l1 3M458 169l0 -30M458 169l1 3M459 202l0 -30M459 202l1 3M460 235l0 -30M460 235l1 3M461 269l0 -31M461 269l1 3M462 302l0 -30M462 302l1 3M463 335l0 -30M463 335l1 3M464 365l0 -27"/>
<path stroke="blue" d="M464 365l1 3M465 398l0 -30M465 398l1 3M466 431l0 -30M466 431l1 3M467 465l0 -31M467 465l1 3M468 498l0 -30M468 498l1 3M469 531l0 -30M469 531l1 3M470 564l0 -30M470 564l1 3M471 597l0 -30M471 597l1 3M472 627l0 -27M472 627l1 3"/>
<path stroke="blue" d="M473 653l0 -23M473 653l28 0 0 -45 1 -6 0 -55 1 -6 0 -60 1 -6 0 -60 1 -6 0 -61 1 -6 0 -60 1 -6 0 -60 1 -6 0 -61 1 -6 0 -60 1 -6 0 -27 55 0M565 58l0 -8M565 58l1 3M566 91l0 -30M566 91l1 3M567 124l0 -30M567 124l1 3M568 157l0 -30"/>
<path stroke="blue" d="M568 157l1 3M569 190l0 -30M569 190l1 3M570 223l0 -30M570 223l1 3M571 254l0 -28M571 254l1 3M572 287l0 -30M572 287l1 3M573 320l0 -30M573 320l1 3M574 353l0 -30M574 353l1 3M575 386l0 -30M575 386l1 3M576 419l0 -30M576 419l1 3"/>
<path stroke="blue" d="M577 453l0 -31M577 453l1 3M578 486l0 -30M578 486l1 3M579 516l0 -27M579 516l1 3M580 549l0 -30M580 549l1 3M581 582l0 -30M581 582l1 3M582 615l0 -30M582 615l1 3M583 648l0 -30M583 648l1 3M584 653l0 -2M584 653l27 0 0 -15 1 -6"/>
<path stroke="blue" d="M612 632l0 -60 1 -6 0 -61 1 -6 0 -60 1 -6 0 -60 1 -6 0 -61 1 -6 0 -54 1 -6 0 -60 1 -6 0 -61 1 -6 0 -57 56 0M676 79l0 -29M676 79l1 3M677 112l0 -30M677 112l1 3M678 145l0 -30M678 145l1 3M679 175l0 -27M679 175l1 3M680 208l0 -30"/>
<path stroke="blue" d="M680 208l1 3M681 241l0 -30M681 241l1 3M682 275l0 -31M682 275l1 3M683 308l0 -30M683 308l1 3M684 341l0 -30M684 341l1 3M685 374l0 -30M685 374l1 3M686 404l0 -27M686 404l1 3M687 437l0 -30M687 437l1 3M688 471l0 -31M688 471l1 3"/>
<path stroke="blue" d="M689 504l0 -30M689 504l1 3M690 537l0 -30M690 537l1 3M691 570l0 -30M691 570l1 3M692 603l0 -30M692 603l1 3M693 636l0 -30M693 636l1 3M694 653l0 -14M694 653l28 0 0 -57 1 -6 0 -61 1 -6 0 -60 1 -6 0 -54 1 -6 0 -61 1 -6 0 -60"/>
<path stroke="blue" d="M727 270l1 -6 0 -60 1 -6 0 -61 1 -6 0 -60 1 -6 0 -15 55 0M786 64l0 -14M786 64l1 3M787 97l0 -30M787 97l1 3M788 130l0 -30M788 130l1 3M789 163l0 -30M789 163l1 3M790 196l0 -30M790 196l1 3M791 229l0 -30M791 229l1 3M792 263l0 -31"/>
<path stroke="blue" d="M792 263l1 3M793 296l0 -30M793 296l1 3M794 326l0 -27M794 326l1 3M795 359l0 -30M795 359l1 3M796 392l0 -30M796 392l1 3M797 425l0 -30M797 425l1 3M798 459l0 -31M798 459l1 3M799 492l0 -30M799 492l1 3M800 525l0 -30M800 525l1 3"/>
<path stroke="blue" d="M801 555l0 -27M801 555l1 3M802 588l0 -30M802 588l1 3M803 621l0 -30M803 621l1 3M804 653l0 -29M804 653l28 0 0 -27 1 -6 0 -60 1 -6 0 -61 1 -6 0 -60 1 -6 0 -60 1 -6 0 -61 1 -6 0 -60 1 -6 0 -60 1 -6 0 -55 1 -6 0 -45 55 0M896 52l0 -2"/>
<path stroke="blue" d="M896 52l1 3M897 85l0 -30M897 85l1 3M898 118l0 -30M898 118l1 3M899 151l0 -30M899 151l1 3M900 184l0 -30M900 184l1 3M901 214l0 -27M901 214l1 3M902 247l0 -30M902 247l1 3M903 281l0 -31M903 281l1 3M904 314l0 -30M904 314l1 3M905 347l0 -30"/>
<path stroke="blue" d="M905 347l1 3M906 380l0 -30M906 380l1 3M907 413l0 -30M907 413l1 3M908 446l0 -30M908 446l1 3M909 477l0 -28M909 477l1 3M910 510l0 -30M910 510l1 3M911 543l0 -30M911 543l1 3M912 576l0 -30M912 576l1 3M913 609l0 -30M913 609l1 3"/>
<path stroke="blue" d="M914 642l0 -30M914 642l1 3M915 653l0 -8M915 653l27 0 0 -4 1 -5 0 -60 1 -6 0 -61 1 -6 0 -60 1 -6 0 -60 1 -6 0 -55 1 -6 0 -60 1 -6 0 -60 1 -6 0 -61 1 -6 0 -60 1 -6 0 -3 18 0"/>
<path stroke="#FFA500" d="M460 39l46 0"/>
<text stroke="none" fill="white" font-size="16" x="516" y="48">
v(Out)
</text>
<path stroke="#FFA500" d="M50 653l14 0 1 1 0 -6 1 -2 0 -32 1 -3 0 -32 1 -3 0 -32 1 -3 0 -30 1 -3 0 -30 1 -3 0 -29 1 -3 0 -28 1 -3 0 -25 1 -2 0 -27 1 -3 0 -25 1 -3 0 -24 1 -3 0 -23 1 -3 0 -22 1 -2 0 -21 1 -2 0 -19 1 -2 0 -16 1 -2 0 -16 1 -1 0 -15"/>
<path stroke="#FFA500" d="M83 156l1 -1 0 -13 1 -1 0 -12 1 -1 0 -10 1 -1 0 -9 1 -1 0 -7 1 -1 0 -6 1 -1 0 -6 1 0 0 -5 1 -1 0 -4 1 0 0 -4 1 0 0 -3 1 -1 0 -2 1 -1 0 -2 1 0 0 -2 1 0 0 -2 1 0 0 -1 1 0 0 -1 1 0 0 -1 1 0 0 -1 1 0 0 -1 1 0 0 -1 2 0 0 -1"/>
<path stroke="#FFA500" d="M106 52l3 0 0 -1 2 0M111 57l0 -7M111 57l1 4M112 129l0 -68M112 129l1 8M113 216l0 -79M113 216l1 8M114 302l0 -78M114 302l1 6M115 383l0 -75M115 383l1 7M116 462l0 -72M116 462l1 7M117 534l0 -65M117 534l1 6M118 589l0 -49M118 589l1 4"/>
<path stroke="#FFA500" d="M119 619l0 -26M119 619l1 3M120 637l0 -15M120 637l1 1M121 646l0 -8M121 646l1 0M122 650l0 -4M122 650l1 0M123 652l0 -2M123 652l2 0M125 653l0 -1M125 653l50 0M175 654l0 -1M175 654l1 -1 0 -26 1 -3 0 -33 1 -3 0 -31 1 -3 0 -31"/>
<path stroke="#FFA500" d="M179 523l1 -3 0 -27 1 -3 0 -30 1 -3 0 -28 1 -3 0 -28 1 -3 0 -27 1 -2 0 -26 1 -3 0 -25 1 -2 0 -24 1 -3 0 -20 1 -2 0 -22 1 -2 0 -20 1 -2 0 -18 1 -2 0 -17 1 -1 0 -15 1 -2 0 -13 1 -2 0 -12 1 -1 0 -9 1 -1 0 -10 1 -1 0 -8"/>
<path stroke="#FFA500" d="M198 103l1 -1 0 -7 1 0 0 -7 1 0 0 -5 1 -1 0 -4 1 -1 0 -3 1 -1 0 -3 1 0 0 -3 1 0 0 -3 1 0 0 -2 1 0 0 -2 1 0 0 -2 1 0 0 -1 1 0 0 -1 1 0 0 -1 1 0 0 -1 2 0 0 -1 1 0 1 -1 2 0 0 -1 2 0 0 -1 1 1M222 98l0 -47M222 98l1 8M223 185l0 -79"/>
<path stroke="#FFA500" d="M223 185l1 8M224 270l0 -77M224 270l1 8M225 353l0 -75M225 353l1 8M226 427l0 -66M226 427l1 7M227 502l0 -68M227 502l1 7M228 567l0 -58M228 567l1 5M229 609l0 -37M229 609l1 3M230 632l0 -20M230 632l1 2M231 643l0 -9M231 643l1 1"/>
<path stroke="#FFA500" d="M232 649l0 -5M232 649l1 0M233 651l0 -2M233 651l1 0M234 652l0 -1M234 652l1 0M235 653l0 -1M235 653l50 0M285 654l0 -1M285 654l1 0 0 -14 1 -4 0 -32 1 -3 0 -29 1 -3 0 -31 1 -3 0 -30 1 -3 0 -30 1 -3 0 -29 1 -3 0 -28 1 -3 0 -27"/>
<path stroke="#FFA500" d="M294 379l1 -3 0 -23 1 -3 0 -25 1 -3 0 -24 1 -3 0 -23 1 -2 0 -22 1 -2 0 -21 1 -2 0 -19 1 -2 0 -17 1 -2 0 -14 1 -1 0 -15 1 -1 0 -13 1 -1 0 -11 1 -1 0 -10 1 -1 0 -9 1 0 0 -8 1 -1 0 -6 1 -1 0 -5 1 0 0 -5 1 -1 0 -4 1 0 0 -4"/>
<path stroke="#FFA500" d="M314 71l1 0 0 -3 1 0 0 -3 1 0 0 -2 1 0 0 -2 1 0 0 -2 1 0 0 -1 1 0 0 -2 1 0 0 -1 1 0 1 -1 1 0 0 -1 2 0 0 -1 3 0 0 -1 1 0 0 -1 1 0M332 71l0 -21M332 71l1 6M333 153l0 -76M333 153l1 8M334 232l0 -71M334 232l1 7M335 316l0 -77"/>
<path stroke="#FFA500" d="M335 316l1 7M336 398l0 -75M336 398l1 7M337 476l0 -71M337 476l1 6M338 546l0 -64M338 546l1 5M339 596l0 -45M339 596l1 4M340 626l0 -26M340 626l1 1M341 639l0 -12M341 639l1 1M342 647l0 -7M342 647l1 0M343 650l0 -3M343 650l1 0"/>
<path stroke="#FFA500" d="M344 652l0 -2M344 652l1 0 1 1 50 0M396 654l0 -2 1 -2 0 -30 1 -3 0 -32 1 -3 0 -31 1 -4 0 -30 1 -3 0 -30 1 -3 0 -29 1 -3 0 -26 1 -3 0 -27 1 -3 0 -27 1 -2 0 -26 1 -3 0 -25 1 -2 0 -24 1 -2 0 -23 1 -2 0 -19 1 -2 0 -20 1 -1"/>
<path stroke="#FFA500" d="M412 212l0 -19 1 -1 0 -17 1 -1 0 -15 1 -2 0 -13 1 -1 0 -12 1 -1 0 -10 1 -1 0 -8 1 -1 0 -8 1 -1 0 -7 1 -1 0 -6 1 0 0 -5 1 -1 0 -4 1 -1 0 -3 1 -1 0 -3 1 0 0 -3 1 0 0 -2 1 0 0 -2 1 -1 0 -1 1 0 0 -2 1 0 0 -1 1 0 0 -1 1 0"/>
<path stroke="#FFA500" d="M433 56l0 -1 1 0 0 -1 1 0 0 -1 2 0 0 -1 3 0 0 -1 2 0M442 53l0 -3M442 53l1 2M443 113l0 -58M443 113l1 8M444 200l0 -79M444 200l1 8M445 286l0 -78M445 286l1 7M446 368l0 -75M446 368l1 8M447 448l0 -72M447 448l1 7M448 522l0 -67"/>
<path stroke="#FFA500" d="M448 522l1 6M449 576l0 -48M449 576l1 5M450 615l0 -34M450 615l1 2M451 635l0 -18M451 635l1 1M452 645l0 -9M452 645l1 0M453 649l0 -4M453 649l1 1M454 651l0 -1M454 651l1 0M455 652l0 -1M455 652l1 0M456 653l0 -1M456 653l50 0"/>
<path stroke="#FFA500" d="M506 654l0 -1M506 654l1 0 0 -21 1 -3 0 -32 1 -3 0 -32 1 -3 0 -28 1 -3 0 -30 1 -3 0 -30 1 -3 0 -29 1 -2 0 -28 1 -3 0 -27 1 -3 0 -26 1 -3 0 -25 1 -2 0 -22 1 -3 0 -23 1 -2 0 -22 1 -2 0 -20 1 -2 0 -19 1 -1 0 -17 1 -2 0 -15"/>
<path stroke="#FFA500" d="M524 165l1 -2 0 -12 1 -2 0 -12 1 -1 0 -11 1 -1 0 -10 1 -1 0 -8 1 -1 0 -7 1 -1 0 -6 1 -1 0 -5 1 -1 0 -4 1 -1 0 -4 1 0 0 -3 1 -1 0 -3 1 0 0 -2 1 -1 0 -2 1 0 0 -2 1 0 0 -1 1 0 0 -2 1 0 0 -1 1 0 0 -1 1 0 0 -1 2 0 0 -1 2 0"/>
<path stroke="#FFA500" d="M548 53l0 -1 3 0 0 -1 1 0 0 -1 1 0M553 84l0 -34M553 84l1 7M554 169l0 -78M554 169l1 8M555 255l0 -78M555 255l1 8M556 331l0 -68M556 331l1 8M557 412l0 -73M557 412l1 7M558 489l0 -70M558 489l1 7M559 557l0 -61M559 557l1 5M560 603l0 -41"/>
<path stroke="#FFA500" d="M560 603l1 3M561 629l0 -23M561 629l1 2M562 642l0 -11M562 642l1 1M563 648l0 -5M563 648l1 0M564 651l0 -3M564 651l1 0M565 652l0 -1M565 652l1 0M566 653l0 -1M566 653l50 0 1 1 0 -6 1 -2 0 -32 1 -3 0 -32 1 -3 0 -32 1 -3 0 -30"/>
<path stroke="#FFA500" d="M621 511l1 -3 0 -30 1 -3 0 -29 1 -3 0 -28 1 -3 0 -25 1 -2 0 -27 1 -3 0 -25 1 -3 0 -25 1 -2 0 -24 1 -2 0 -22 1 -2 0 -21 1 -2 0 -19 1 -2 0 -16 1 -2 0 -16 1 -1 0 -15 1 -1 0 -13 1 -2 0 -11 1 -1 0 -10 1 -1 0 -9 1 -1 0 -7"/>
<path stroke="#FFA500" d="M640 100l1 -1 0 -6 1 -1 0 -6 1 0 0 -5 1 -1 0 -4 1 0 0 -4 1 0 0 -3 1 -1 0 -2 1 -1 0 -2 1 0 0 -2 1 0 0 -2 1 0 0 -1 1 0 0 -1 1 0 0 -1 1 0 0 -1 1 0 0 -1 1 0 0 -1 2 0 0 -1 3 0 0 -1 2 0M663 57l0 -7M663 57l1 4M664 129l0 -68"/>
<path stroke="#FFA500" d="M664 129l1 8M665 216l0 -79M665 216l1 8M666 302l0 -78M666 302l1 6M667 383l0 -75M667 383l1 7M668 462l0 -72M668 462l1 7M669 534l0 -65M669 534l1 6M670 589l0 -49M670 589l1 4M671 619l0 -26M671 619l1 3M672 637l0 -15M672 637l1 1"/>
<path stroke="#FFA500" d="M673 646l0 -8M673 646l1 0M674 650l0 -4M674 650l1 0M675 652l0 -2M675 652l2 0M677 653l0 -1M677 653l50 0M727 654l0 -1M727 654l1 -1 0 -26 1 -3 0 -33 1 -3 0 -31 1 -3 0 -31 1 -3 0 -27 1 -3 0 -30 1 -3 0 -28 1 -3 0 -28 1 -3"/>
<path stroke="#FFA500" d="M736 395l0 -27 1 -2 0 -26 1 -3 0 -25 1 -2 0 -24 1 -3 0 -20 1 -2 0 -22 1 -2 0 -20 1 -2 0 -18 1 -2 0 -17 1 -1 0 -15 1 -2 0 -13 1 -2 0 -12 1 -1 0 -9 1 -1 0 -10 1 -1 0 -8 1 -1 0 -7 1 0 0 -7 1 0 0 -5 1 -1 0 -4 1 -1 0 -3 1 -1"/>
<path stroke="#FFA500" d="M756 73l0 -3 1 0 0 -3 1 0 0 -3 1 0 0 -2 1 0 0 -2 1 0 0 -2 1 0 0 -1 1 0 0 -1 1 0 0 -1 1 0 0 -1 2 0 0 -1 1 0 1 -1 2 0 0 -1 2 0 0 -1 1 1M774 98l0 -47M774 98l1 8M775 185l0 -79M775 185l1 8M776 270l0 -77M776 270l1 8M777 353l0 -75"/>
<path stroke="#FFA500" d="M777 353l1 8M778 427l0 -66M778 427l1 7M779 502l0 -68M779 502l1 7M780 567l0 -58M780 567l1 5M781 609l0 -37M781 609l1 3M782 632l0 -20M782 632l1 2M783 643l0 -9M783 643l1 1M784 649l0 -5M784 649l1 0M785 651l0 -2M785 651l1 0"/>
<path stroke="#FFA500" d="M786 652l0 -1M786 652l1 0M787 653l0 -1M787 653l50 0M837 654l0 -1M837 654l1 0 0 -14 1 -4 0 -32 1 -3 0 -29 1 -3 0 -31 1 -3 0 -30 1 -3 0 -30 1 -3 0 -29 1 -3 0 -28 1 -3 0 -27 1 -3 0 -23 1 -3 0 -25 1 -3 0 -24 1 -3 0 -23 1 -2"/>
<path stroke="#FFA500" d="M851 270l0 -22 1 -2 0 -21 1 -2 0 -19 1 -2 0 -17 1 -2 0 -14 1 -1 0 -15 1 -1 0 -13 1 -1 0 -11 1 -1 0 -10 1 -1 0 -9 1 0 0 -8 1 -1 0 -6 1 -1 0 -5 1 0 0 -5 1 -1 0 -4 1 0 0 -4 1 0 0 -3 1 0 0 -3 1 0 0 -2 1 0 0 -2 1 0 0 -2 1 0"/>
<path stroke="#FFA500" d="M872 59l0 -1 1 0 0 -2 1 0 0 -1 1 0 1 -1 1 0 0 -1 2 0 0 -1 3 0 0 -1 1 0 0 -1 1 0M884 71l0 -21M884 71l1 6M885 153l0 -76M885 153l1 8M886 232l0 -71M886 232l1 7M887 316l0 -77M887 316l1 7M888 398l0 -75M888 398l1 7M889 476l0 -71"/>
<path stroke="#FFA500" d="M889 476l1 6M890 546l0 -64M890 546l1 5M891 596l0 -45M891 596l1 4M892 626l0 -26M892 626l1 1M893 639l0 -12M893 639l1 1M894 647l0 -7M894 647l1 0M895 650l0 -3M895 650l1 0M896 652l0 -2M896 652l1 0 1 1 50 0M948 654l0 -2 1 -2"/>
<path stroke="#FFA500" d="M949 650l0 -30 1 -3 0 -32 1 -3 0 -31 1 -4 0 -30 1 -3 0 -30 1 -3 0 -29 1 -3 0 -26 1 -3 0 -27 1 -3 0 -27 1 -2 0 -26 1 -3 0 -25 1 -2 0 -24 1 -2 0 -23 1 -2 0 -19 1 -2 0 -20 1 -1 0 -19 1 -1 0 -17 1 -1 0 -15 1 -2 0 -13 1 -1"/>
<path stroke="#FFA500" d="M968 143l0 -12 1 -1 0 -10 1 -1 0 -4"/>
</svg>
