<?xml version="1.0" standalone="yes"?>
<!DOCTYPE svg PUBLIC "-//W3C//DTD SVG 1.1//EN"
 "http://www.w3.org/Graphics/SVG/1.1/DTD/svg11.dtd">
<svg xmlns="http://www.w3.org/2000/svg" version="1.1"
  width="100%" height="100%" viewBox="0 0 1024 768"
  style="fill: none; font-family: Helvetica;
 font: Helvetica;
">

<!-- Creator: NGspice -->

<rect x="0" y="0" width="1024" height="768" fill="black" stroke="none"/>
<text stroke="none" fill="white" font-size="16" x="358" y="752">
v-sweep
</text>
<text stroke="none" fill="white" font-size="16" x="10" y="16">
dc1: ** sch_path: /home/lxbtlr/mad/miniproject3/test_harness.sch
</text>
<path stroke="white" d="M50 720l0 -666"/>
<text stroke="none" fill="white" font-size="16" x="35" y="728">
0.0
</text>
<path stroke="white" stroke-dasharray="1,2" d="M152 720l0 -666"/>
<text stroke="none" fill="white" font-size="16" x="137" y="728">
0.2
</text>
<path stroke="white" stroke-dasharray="1,2" d="M254 720l0 -666"/>
<text stroke="none" fill="white" font-size="16" x="239" y="728">
0.4
</text>
<path stroke="white" stroke-dasharray="1,2" d="M356 720l0 -666"/>
<text stroke="none" fill="white" font-size="16" x="341" y="728">
0.6
</text>
<path stroke="white" stroke-dasharray="1,2" d="M458 720l0 -666"/>
<text stroke="none" fill="white" font-size="16" x="443" y="728">
0.8
</text>
<path stroke="white" stroke-dasharray="1,2" d="M560 720l0 -666"/>
<text stroke="none" fill="white" font-size="16" x="545" y="728">
1.0
</text>
<path stroke="white" stroke-dasharray="1,2" d="M662 720l0 -666"/>
<text stroke="none" fill="white" font-size="16" x="647" y="728">
1.2
</text>
<path stroke="white" stroke-dasharray="1,2" d="M764 720l0 -666"/>
<text stroke="none" fill="white" font-size="16" x="749" y="728">
1.4
</text>
<path stroke="white" stroke-dasharray="1,2" d="M866 720l0 -666"/>
<text stroke="none" fill="white" font-size="16" x="851" y="728">
1.6
</text>
<path stroke="white" stroke-dasharray="1,2" d="M968 720l0 -666"/>
<text stroke="none" fill="white" font-size="16" x="953" y="728">
1.8
</text>
<text stroke="none" fill="white" font-size="16" x="614" y="752">
V
</text>
<path stroke="white" d="M50 720l918 0"/>
<text stroke="none" fill="white" font-size="16" x="18" y="728">
0.0
</text>
<path stroke="white" stroke-dasharray="1,2" d="M50 646l918 0"/>
<text stroke="none" fill="white" font-size="16" x="18" y="654">
0.2
</text>
<path stroke="white" stroke-dasharray="1,2" d="M50 572l918 0"/>
<text stroke="none" fill="white" font-size="16" x="18" y="580">
0.4
</text>
<path stroke="white" stroke-dasharray="1,2" d="M50 498l918 0"/>
<text stroke="none" fill="white" font-size="16" x="18" y="506">
0.6
</text>
<path stroke="white" stroke-dasharray="1,2" d="M50 424l918 0"/>
<text stroke="none" fill="white" font-size="16" x="18" y="432">
0.8
</text>
<path stroke="white" stroke-dasharray="1,2" d="M50 350l918 0"/>
<text stroke="none" fill="white" font-size="16" x="18" y="358">
1.0
</text>
<path stroke="white" stroke-dasharray="1,2" d="M50 276l918 0"/>
<text stroke="none" fill="white" font-size="16" x="18" y="284">
1.2
</text>
<path stroke="white" stroke-dasharray="1,2" d="M50 202l918 0"/>
<text stroke="none" fill="white" font-size="16" x="18" y="210">
1.4
</text>
<path stroke="white" stroke-dasharray="1,2" d="M50 128l918 0"/>
<text stroke="none" fill="white" font-size="16" x="18" y="136">
1.6
</text>
<path stroke="white" stroke-dasharray="1,2" d="M50 54l918 0"/>
<text stroke="none" fill="white" font-size="16" x="18" y="62">
1.8
</text>
<text stroke="none" fill="white" font-size="16" x="10" y="32">
V
</text>
<path stroke="red" d="M459 23l45 0"/>
<text stroke="none" fill="white" font-size="16" x="514" y="32">
v(out)
</text>
<path stroke="red" d="M50 673l210 0 0 -1 15 0 0 -1 9 0 0 -1 6 0 0 -1 5 0 0 -1 3 0 1 -1 2 0 1 -1 2 0 1 -1 2 0 1 -1 1 0 1 -1 1 0 1 -1 1 0 0 -1 2 0 0 -1 1 0 1 -1 1 0 0 -1 1 0 0 -1 1 0 2 -2 1 0 0 -1 1 0 0 -1 1 0 0 -1 1 0 0 -1 1 0 0 -1 5 -5 0 -1 1 0"/>
<path stroke="red" d="M333 644l0 -1 2 -2 0 -1 1 -1 0 -1 1 0 0 -1 1 -1 0 -1 1 -1 0 -1 1 -1 0 -1 1 -1 0 -1 1 -1 0 -1 1 -1 0 -1 1 -1 0 -2 1 -1 0 -1 1 -2 0 -1 1 -1 0 -2 1 -1 0 -2 1 -2 0 -2 1 -2 0 -2 1 -2 0 -2 1 -3 0 -3 1 -3 0 -4 1 -5 0 -5 1 -5 0 -6"/>
<path stroke="red" d="M355 565l1 -7 1 -6 0 -7 1 -7 0 -7 1 -8 0 -7 1 -8 0 -8 1 -8 0 -8 1 -8 0 -9 1 -8 0 -9 1 -9 0 -9 1 -9 0 -9 1 -9 0 -10 1 -9 0 -10 1 -10 0 -10 1 -9 0 -10 1 -10 0 -10 1 -11 0 -10 1 -10 0 -10 1 -11 0 -10 1 -10 0 -11 1 -10 0 -10"/>
<path stroke="red" d="M375 214l1 -10 0 -11 1 -9 0 -10 1 -10 0 -8 1 -8 0 -7 1 -5 0 -4 1 -4 1 -3 0 -3 1 -2 0 -2 1 -2 0 -2 1 -2 0 -2 1 -1 0 -2 1 -1 0 -1 1 -2 0 -1 1 -1 0 -1 1 -1 0 -1 1 -1 0 -1 1 -1 0 -1 1 -1 0 -1 1 0 0 -1 2 -2 0 -1 1 0 0 -1 1 0"/>
<path stroke="red" d="M398 87l0 -1 1 0 0 -1 1 0 0 -1 1 0 0 -1 1 0 0 -1 1 0 1 -1 1 0 0 -1 1 0 1 -1 1 0 1 -1 1 0 1 -1 1 0 1 -1 1 0 1 -1 2 0 0 -1 2 0 1 -1 3 0 0 -1 3 0 0 -1 4 0 0 -1 5 0 0 -1 5 0 0 -1 6 0 0 -1 7 0 0 -1 9 0 0 -1 9 0 0 -1 11 0 0 -1"/>
<path stroke="red" d="M482 63l12 0 1 -1 13 0 0 -1 15 0 1 -1 16 0 1 -1 18 0 1 -1 21 0 1 -1 26 0 1 -1 37 0 0 -1 73 0 0 -1 249 0M50 711l319 0 1 -1 43 0 0 -1 12 0 0 -1 7 0 1 -1 4 0 1 -1 3 0 0 -1 3 0 0 -1 2 0 0 -1 2 0 0 -1 2 0 0 -1 1 0 6 -6 0 -1 1 0"/>
<path stroke="red" d="M458 694l1 -1 0 -1 2 -2 0 -1 1 -1 0 -1 1 -1 0 -1 1 -2 0 -1 1 -1 0 -1 1 -2 0 -1 1 -1 0 -2 1 -1 0 -2 1 -2 0 -1 1 -2 0 -2 1 -1 0 -2 1 -2 0 -2 1 -2 0 -2 1 -2 0 -2 1 -2 0 -3 1 -2 0 -2 1 -3 0 -2 1 -2 0 -3 1 -3 0 -2 1 -3 0 -3 1 -3"/>
<path stroke="red" d="M481 616l0 -4 1 -3 0 -4 1 -4 1 -5 0 -6 1 -7 0 -9 1 -11 0 -11 1 -12 0 -12 1 -13 0 -13 1 -13 0 -14 1 -14 0 -14 1 -14 0 -15 1 -14 0 -15 1 -15 0 -15 1 -16 0 -15 1 -16 0 -15 1 -16 0 -15 1 -16 0 -16 1 -16 0 -15 1 -15 0 -15 1 -14"/>
<path stroke="red" d="M500 159l0 -11 1 -9 0 -6 1 -4 0 -4 1 -4 0 -3 1 -2 0 -3 1 -2 0 -3 1 -2 0 -2 1 -2 0 -1 1 -2 0 -2 2 -2 0 -2 1 -1 0 -1 1 -1 0 -1 1 -1 0 -1 1 -1 0 -1 1 -1 0 -1 1 0 0 -1 2 -2 0 -1 1 0 0 -1 1 0 0 -1 1 0 0 -1 1 0 0 -1 1 0 0 -1 1 0"/>
<path stroke="red" d="M524 74l2 -2 1 0 0 -1 1 0 1 -1 1 0 1 -1 1 0 1 -1 2 0 0 -1 2 0 1 -1 2 0 0 -1 3 0 0 -1 3 0 1 -1 3 0 1 -1 4 0 0 -1 6 0 1 -1 6 0 1 -1 9 0 1 -1 13 0 1 -1 20 0 1 -1 33 0 0 -1 72 0 1 -1 248 0M50 717l493 0 1 -1 15 0 1 -1 8 0 1 -1"/>
<path stroke="red" d="M569 714l4 0 1 -1 3 0 1 -1 2 0 1 -1 2 0 0 -1 2 0 0 -1 2 0 0 -1 1 0 2 -2 1 0 0 -1 2 -2 0 -1 1 0 0 -1 1 -1 0 -1 1 -1 0 -1 1 -2 0 -1 1 -2 0 -1 1 -2 0 -2 1 -2 0 -2 1 -3 0 -2 1 -3 0 -2 1 -3 0 -3 1 -3 0 -3 1 -3 0 -3 1 -4 0 -3"/>
<path stroke="red" d="M606 648l1 -3 0 -4 1 -4 0 -4 1 -4 0 -4 1 -4 0 -5 2 -10 0 -6 1 -7 0 -8 1 -12 0 -14 1 -16 0 -16 1 -16 0 -17 1 -18 0 -18 1 -18 0 -18 1 -19 0 -19 1 -19 0 -19 1 -19 0 -20 1 -19 0 -20 1 -19 0 -20 1 -19 0 -20 1 -18 0 -16 1 -11"/>
<path stroke="red" d="M626 145l0 -8 1 -5 0 -4 1 -4 0 -4 1 -3 0 -3 1 -2 0 -3 1 -2 0 -3 1 -2 0 -2 1 -2 0 -2 1 -1 0 -2 1 -1 0 -2 1 -1 0 -2 2 -2 0 -1 1 -1 0 -1 1 -1 0 -1 2 -2 0 -1 1 0 0 -1 6 -6 1 0 0 -1 1 0 0 -1 1 0 1 -1 1 0 0 -1 2 0 0 -1 2 0 0 -1"/>
<path stroke="red" d="M658 64l2 0 0 -1 3 0 0 -1 2 0 1 -1 3 0 0 -1 3 0 1 -1 4 0 1 -1 5 0 1 -1 8 0 1 -1 13 0 0 -1 36 0 1 -1 225 0M50 720l581 0 1 -1 62 0 0 -1 9 0 1 -1 5 0 0 -1 3 0 1 -1 3 0 0 -1 2 0 0 -1 2 0 0 -1 1 0 0 -1 1 0 3 -3 0 -1 2 -2 0 -1"/>
<path stroke="red" d="M727 704l1 -2 0 -1 1 -2 0 -1 1 -3 0 -2 1 -3 0 -2 1 -4 0 -3 1 -4 0 -4 1 -4 0 -4 1 -5 0 -4 1 -5 0 -5 1 -5 0 -6 1 -5 0 -6 1 -6 1 -7 0 -7 1 -8 0 -10 1 -12 0 -17 1 -18 0 -20 1 -19 0 -20 1 -21 0 -20 1 -21 0 -22 1 -21 0 -22 1 -22"/>
<path stroke="red" d="M748 331l0 -21 1 -22 0 -22 1 -22 0 -22 1 -21 0 -21 1 -18 0 -12 1 -7 0 -5 1 -5 0 -4 1 -3 0 -3 1 -3 0 -3 1 -3 0 -2 1 -2 0 -3 1 -2 0 -2 1 -2 0 -2 1 -2 0 -2 1 -1 0 -2 1 -2 0 -1 1 -1 1 -2 0 -1 1 -1 0 -1 1 -1 0 -1 1 -1 0 -1 1 0"/>
<path stroke="red" d="M769 79l0 -1 1 -1 0 -1 1 0 0 -1 1 0 0 -1 3 -3 1 0 0 -1 1 0 0 -1 1 0 1 -1 1 0 0 -1 1 0 1 -1 1 0 1 -1 1 0 1 -1 2 0 0 -1 3 0 0 -1 3 0 0 -1 3 0 0 -1 4 0 0 -1 5 0 0 -1 6 0 0 -1 8 0 0 -1 12 0 0 -1 25 0 0 -1 111 0M50 720l775 0"/>
<path stroke="red" d="M825 720l1 -1 12 0 1 -1 5 0 0 -1 3 0 0 -1 2 0 1 -1 1 0 0 -1 1 0 4 -4 0 -1 1 -1 0 -1 1 -1 0 -2 1 -1 0 -3 1 -2 0 -3 1 -4 0 -4 1 -4 0 -5 1 -5 0 -6 1 -6 0 -6 1 -7 0 -6 1 -7 1 -8 0 -7 1 -8 0 -9 1 -10 0 -11 1 -15 0 -18 1 -20 0 -21"/>
<path stroke="red" d="M871 508l1 -21 0 -21 1 -21 0 -22 1 -22 0 -22 1 -22 0 -22 1 -22 0 -23 1 -22 0 -22 1 -21 0 -22 1 -19 0 -16 1 -10 0 -6 1 -5 0 -3 1 -4 0 -3 1 -3 0 -2 1 -3 0 -2 1 -3 0 -2 1 -2 0 -2 1 -2 0 -2 1 -2 0 -2 1 -2 0 -1 1 -2 0 -2 1 -1"/>
<path stroke="red" d="M891 102l0 -2 1 -1 1 -2 0 -1 1 -2 0 -1 1 -1 0 -2 1 -1 0 -1 1 -1 0 -1 1 -1 0 -1 2 -2 0 -1 2 -2 0 -1 1 0 0 -1 1 0 0 -1 1 0 0 -1 1 0 0 -1 1 0 0 -1 1 0 2 -2 1 0 0 -1 1 0 1 -1 1 0 1 -1 1 0 0 -1 2 0 1 -1 2 0 0 -1 2 0 1 -1 2 0"/>
<path stroke="red" d="M926 64l0 -1 3 0 0 -1 3 0 1 -1 3 0 0 -1 4 0 1 -1 5 0 0 -1 6 0 1 -1 7 0 1 -1 7 0"/>
<path stroke="blue" d="M50 23l45 0"/>
<text stroke="none" fill="white" font-size="16" x="105" y="32">
v(v_1)
</text>
<path stroke="blue" d="M50 720l1 0 0 -1 1 0 2 -2 1 0 0 -1 1 0 2 -2 1 0 0 -1 1 0 2 -2 1 0 0 -1 1 0 1 -1 1 0 0 -1 1 0 0 -1 1 0 1 -1 1 0 0 -1 1 0 0 -1 1 0 1 -1 1 0 0 -1 1 0 1 -1 1 0 0 -1 1 0 1 -1 1 0 0 -1 1 0 0 -1 1 0 1 -1 1 0 0 -1 1 0 0 -1 1 0"/>
<path stroke="blue" d="M86 694l1 -1 1 0 0 -1 1 0 2 -2 1 0 0 -1 1 0 2 -2 1 0 0 -1 1 0 2 -2 1 0 0 -1 2 0 0 -1 1 0 2 -2 1 0 0 -1 1 0 2 -2 1 0 0 -1 1 0 2 -2 1 0 0 -1 1 0 1 -1 1 0 0 -1 1 0 0 -1 1 0 1 -1 1 0 0 -1 1 0 0 -1 1 0 1 -1 1 0 0 -1 1 0 1 -1"/>
<path stroke="blue" d="M127 664l1 0 0 -1 1 0 1 -1 1 0 0 -1 1 0 0 -1 1 0 1 -1 1 0 0 -1 1 0 0 -1 1 0 1 -1 1 0 0 -1 1 0 2 -2 1 0 0 -1 1 0 2 -2 1 0 0 -1 1 0 2 -2 1 0 0 -1 2 0 0 -1 1 0 2 -2 1 0 0 -1 1 0 2 -2 1 0 0 -1 1 0 2 -2 1 0 0 -1 1 0 1 -1 1 0"/>
<path stroke="blue" d="M168 635l0 -1 1 0 0 -1 1 0 1 -1 1 0 0 -1 1 0 0 -1 1 0 1 -1 1 0 0 -1 1 0 1 -1 1 0 0 -1 1 0 1 -1 1 0 0 -1 1 0 0 -1 1 0 1 -1 1 0 0 -1 1 0 0 -1 1 0 1 -1 1 0 0 -1 1 0 2 -2 1 0 0 -1 1 0 2 -2 1 0 0 -1 1 0 2 -2 1 0 0 -1 2 0 0 -1"/>
<path stroke="blue" d="M204 608l1 0 2 -2 1 0 0 -1 1 0 2 -2 1 0 0 -1 1 0 2 -2 1 0 0 -1 1 0 1 -1 1 0 0 -1 1 0 0 -1 1 0 1 -1 1 0 0 -1 1 0 0 -1 1 0 1 -1 1 0 0 -1 1 0 1 -1 1 0 0 -1 1 0 1 -1 1 0 0 -1 1 0 0 -1 1 0 1 -1 1 0 0 -1 1 0 0 -1 1 0 1 -1 1 0"/>
<path stroke="blue" d="M241 582l0 -1 1 0 2 -2 1 0 0 -1 1 0 2 -2 1 0 0 -1 1 0 2 -2 1 0 0 -1 2 0 0 -1 1 0 2 -2 1 0 0 -1 1 0 2 -2 1 0 0 -1 1 0 2 -2 1 0 0 -1 1 0 1 -1 1 0 0 -1 1 0 0 -1 1 0 1 -1 1 0 0 -1 1 0 0 -1 1 0 1 -1 1 0 0 -1 1 0 1 -1 1 0 0 -1"/>
<path stroke="blue" d="M281 552l1 0 1 -1 1 0 0 -1 1 0 0 -1 1 0 1 -1 1 0 0 -1 1 0 0 -1 1 0 1 -1 1 0 0 -1 1 0 2 -2 1 0 0 -1 1 0 2 -2 1 0 0 -1 1 0 2 -2 1 0 0 -1 2 0 0 -1 1 0 2 -2 1 0 0 -1 1 0 2 -2 1 0 0 -1 1 0 2 -2 1 0 0 -1 1 0 1 -1 1 0 0 -1 1 0"/>
<path stroke="blue" d="M322 523l0 -1 1 0 1 -1 1 0 0 -1 1 0 0 -1 1 0 1 -1 1 0 0 -1 1 0 1 -1 1 0 0 -1 1 0 1 -1 1 0 0 -1 1 0 0 -1 1 0 1 -1 1 0 0 -1 1 0 0 -1 1 0 1 -1 1 0 0 -1 1 0 2 -2 1 0 0 -1 1 0 2 -2 1 0 0 -1 1 0 2 -2 1 0 0 -1 2 0 0 -1 1 0 2 -2"/>
<path stroke="blue" d="M360 495l1 0 0 -1 1 0 2 -2 1 0 0 -1 1 0 2 -2 1 0 0 -1 1 0 1 -1 1 0 0 -1 1 0 0 -1 1 0 1 -1 1 0 0 -1 1 0 0 -1 1 0 1 -1 1 0 0 -1 1 0 1 -1 1 0 0 -1 1 0 1 -1 1 0 0 -1 1 0 0 -1 1 0 1 -1 1 0 0 -1 1 0 0 -1 1 0 1 -1 1 0 0 -1 1 0"/>
<path stroke="blue" d="M395 470l2 -2 1 0 0 -1 1 0 2 -2 1 0 0 -1 1 0 2 -2 1 0 0 -1 2 0 0 -1 1 0 2 -2 1 0 0 -1 1 0 2 -2 1 0 0 -1 1 0 2 -2 1 0 0 -1 1 0 1 -1 1 0 0 -1 1 0 0 -1 1 0 1 -1 1 0 0 -1 1 0 0 -1 1 0 1 -1 1 0 0 -1 1 0 1 -1 1 0 0 -1 1 0 1 -1"/>
<path stroke="blue" d="M436 440l1 0 0 -1 1 0 0 -1 1 0 1 -1 1 0 0 -1 1 0 0 -1 1 0 1 -1 1 0 0 -1 1 0 2 -2 1 0 0 -1 1 0 2 -2 1 0 0 -1 1 0 2 -2 1 0 0 -1 2 0 0 -1 1 0 2 -2 1 0 0 -1 1 0 2 -2 1 0 0 -1 1 0 2 -2 1 0 0 -1 1 0 1 -1 1 0 0 -1 1 0 0 -1 1 0"/>
<path stroke="blue" d="M476 411l1 -1 1 0 0 -1 1 0 0 -1 1 0 1 -1 1 0 0 -1 1 0 1 -1 1 0 0 -1 1 0 1 -1 1 0 0 -1 1 0 0 -1 1 0 1 -1 1 0 0 -1 1 0 0 -1 1 0 1 -1 1 0 0 -1 1 0 2 -2 1 0 0 -1 1 0 2 -2 1 0 0 -1 1 0 2 -2 1 0 0 -1 2 0 0 -1 1 0 2 -2 1 0 0 -1"/>
<path stroke="blue" d="M514 383l1 0 2 -2 1 0 0 -1 1 0 2 -2 1 0 0 -1 1 0 1 -1 1 0 0 -1 1 0 0 -1 1 0 1 -1 1 0 0 -1 1 0 0 -1 1 0 1 -1 1 0 0 -1 1 0 1 -1 1 0 0 -1 1 0 1 -1 1 0 0 -1 1 0 0 -1 1 0 1 -1 1 0 0 -1 1 0 0 -1 1 0 1 -1 1 0 0 -1 1 0 2 -2 1 0"/>
<path stroke="blue" d="M551 357l0 -1 1 0 2 -2 1 0 0 -1 1 0 2 -2 1 0 0 -1 2 0 0 -1 1 0 2 -2 1 0 0 -1 1 0 2 -2 1 0 0 -1 1 0 2 -2 1 0 0 -1 1 0 1 -1 1 0 0 -1 1 0 0 -1 1 0 1 -1 1 0 0 -1 1 0 0 -1 1 0 1 -1 1 0 0 -1 1 0 1 -1 1 0 0 -1 1 0 1 -1 1 0 0 -1"/>
<path stroke="blue" d="M590 328l1 0 0 -1 1 0 1 -1 1 0 0 -1 1 0 0 -1 1 0 1 -1 1 0 0 -1 1 0 2 -2 1 0 0 -1 1 0 2 -2 1 0 0 -1 1 0 2 -2 1 0 0 -1 2 0 0 -1 1 0 2 -2 1 0 0 -1 1 0 2 -2 1 0 0 -1 1 0 2 -2 1 0 0 -1 1 0 1 -1 1 0 0 -1 1 0 0 -1 1 0 1 -1 1 0"/>
<path stroke="blue" d="M631 299l0 -1 1 0 0 -1 1 0 1 -1 1 0 0 -1 1 0 1 -1 1 0 0 -1 1 0 1 -1 1 0 0 -1 1 0 0 -1 1 0 1 -1 1 0 0 -1 1 0 0 -1 1 0 1 -1 1 0 0 -1 1 0 2 -2 1 0 0 -1 1 0 2 -2 1 0 0 -1 1 0 2 -2 1 0 0 -1 2 0 0 -1 1 0 2 -2 1 0 0 -1 1 0 2 -2"/>
<path stroke="blue" d="M670 270l1 0 0 -1 1 0 2 -2 1 0 0 -1 1 0 1 -1 1 0 0 -1 1 0 0 -1 1 0 1 -1 1 0 0 -1 1 0 0 -1 1 0 1 -1 1 0 0 -1 1 0 1 -1 1 0 0 -1 1 0 1 -1 1 0 0 -1 1 0 0 -1 1 0 1 -1 1 0 0 -1 1 0 0 -1 1 0 1 -1 1 0 0 -1 1 0 2 -2 1 0 0 -1 1 0"/>
<path stroke="blue" d="M705 245l2 -2 1 0 0 -1 1 0 2 -2 1 0 0 -1 2 0 0 -1 1 0 2 -2 1 0 0 -1 1 0 2 -2 1 0 0 -1 1 0 2 -2 1 0 0 -1 1 0 1 -1 1 0 0 -1 1 0 0 -1 1 0 1 -1 1 0 0 -1 1 0 0 -1 1 0 1 -1 1 0 0 -1 1 0 1 -1 1 0 0 -1 1 0 1 -1 1 0 0 -1 1 0 0 -1"/>
<path stroke="blue" d="M744 216l1 0 1 -1 1 0 0 -1 1 0 0 -1 1 0 1 -1 1 0 0 -1 1 0 2 -2 1 0 0 -1 1 0 2 -2 1 0 0 -1 1 0 2 -2 1 0 0 -1 2 0 0 -1 1 0 2 -2 1 0 0 -1 1 0 2 -2 1 0 0 -1 1 0 2 -2 1 0 0 -1 1 0 1 -1 1 0 0 -1 1 0 0 -1 1 0 1 -1 1 0 0 -1 1 0"/>
<path stroke="blue" d="M785 187l0 -1 1 0 1 -1 1 0 0 -1 1 0 1 -1 1 0 0 -1 1 0 1 -1 1 0 0 -1 1 0 0 -1 1 0 1 -1 1 0 0 -1 1 0 0 -1 1 0 1 -1 1 0 0 -1 1 0 2 -2 1 0 0 -1 1 0 2 -2 1 0 0 -1 1 0 2 -2 1 0 0 -1 2 0 0 -1 1 0 2 -2 1 0 0 -1 1 0 2 -2 1 0 0 -1"/>
<path stroke="blue" d="M824 158l1 0 2 -2 1 0 0 -1 1 0 1 -1 1 0 0 -1 1 0 0 -1 1 0 1 -1 1 0 0 -1 1 0 0 -1 1 0 1 -1 1 0 0 -1 1 0 1 -1 1 0 0 -1 1 0 1 -1 1 0 0 -1 1 0 0 -1 1 0 1 -1 1 0 0 -1 1 0 0 -1 1 0 1 -1 1 0 0 -1 1 0 2 -2 1 0 0 -1 1 0 2 -2 1 0"/>
<path stroke="blue" d="M861 132l0 -1 1 0 2 -2 1 0 0 -1 2 0 0 -1 1 0 2 -2 1 0 0 -1 1 0 2 -2 1 0 0 -1 1 0 2 -2 1 0 0 -1 1 0 1 -1 1 0 0 -1 1 0 0 -1 1 0 1 -1 1 0 0 -1 1 0 0 -1 1 0 1 -1 1 0 0 -1 1 0 1 -1 1 0 0 -1 1 0 1 -1 1 0 0 -1 1 0 0 -1 1 0 1 -1"/>
<path stroke="blue" d="M899 104l1 0 0 -1 1 0 0 -1 1 0 1 -1 1 0 0 -1 1 0 2 -2 1 0 0 -1 1 0 2 -2 1 0 0 -1 1 0 2 -2 1 0 0 -1 2 0 0 -1 1 0 2 -2 1 0 0 -1 1 0 2 -2 1 0 0 -1 1 0 2 -2 1 0 0 -1 1 0 1 -1 1 0 0 -1 1 0 0 -1 1 0 1 -1 1 0 0 -1 1 0 0 -1 1 0"/>
<path stroke="blue" d="M939 75l1 -1 1 0 0 -1 1 0 1 -1 1 0 0 -1 1 0 1 -1 1 0 0 -1 1 0 0 -1 1 0 1 -1 1 0 0 -1 1 0 0 -1 1 0 1 -1 1 0 0 -1 1 0 2 -2 1 0 0 -1 1 0 2 -2 1 0 0 -1 1 0 2 -2 1 0 0 -1 1 0M50 720l1 0 0 -1 1 0 2 -2 1 0 0 -1 1 0 2 -2 1 0 0 -1"/>
<path stroke="blue" d="M59 713l1 0 2 -2 1 0 0 -1 1 0 1 -1 1 0 0 -1 1 0 0 -1 1 0 1 -1 1 0 0 -1 1 0 0 -1 1 0 1 -1 1 0 0 -1 1 0 1 -1 1 0 0 -1 1 0 1 -1 1 0 0 -1 1 0 0 -1 1 0 1 -1 1 0 0 -1 1 0 0 -1 1 0 1 -1 1 0 0 -1 1 0 2 -2 1 0 0 -1 1 0 2 -2 1 0"/>
<path stroke="blue" d="M96 687l0 -1 1 0 2 -2 1 0 0 -1 2 0 0 -1 1 0 2 -2 1 0 0 -1 1 0 2 -2 1 0 0 -1 1 0 2 -2 1 0 0 -1 1 0 1 -1 1 0 0 -1 1 0 0 -1 1 0 1 -1 1 0 0 -1 1 0 0 -1 1 0 1 -1 1 0 0 -1 1 0 1 -1 1 0 0 -1 1 0 1 -1 1 0 0 -1 1 0 0 -1 1 0 1 -1"/>
<path stroke="blue" d="M134 659l1 0 0 -1 1 0 0 -1 1 0 1 -1 1 0 0 -1 1 0 2 -2 1 0 0 -1 1 0 2 -2 1 0 0 -1 1 0 2 -2 1 0 0 -1 2 0 0 -1 1 0 2 -2 1 0 0 -1 1 0 2 -2 1 0 0 -1 1 0 2 -2 1 0 0 -1 1 0 1 -1 1 0 0 -1 1 0 0 -1 1 0 1 -1 1 0 0 -1 1 0 0 -1 1 0"/>
<path stroke="blue" d="M174 630l1 -1 1 0 0 -1 1 0 1 -1 1 0 0 -1 1 0 1 -1 1 0 0 -1 1 0 0 -1 1 0 1 -1 1 0 0 -1 1 0 0 -1 1 0 1 -1 1 0 0 -1 1 0 2 -2 1 0 0 -1 1 0 2 -2 1 0 0 -1 1 0 2 -2 1 0 0 -1 2 0 0 -1 1 0 2 -2 1 0 0 -1 1 0 2 -2 1 0 0 -1 1 0 2 -2"/>
<path stroke="blue" d="M215 600l1 0 0 -1 1 0 1 -1 1 0 0 -1 1 0 0 -1 1 0 1 -1 1 0 0 -1 1 0 0 -1 1 0 1 -1 1 0 0 -1 1 0 1 -1 1 0 0 -1 1 0 1 -1 1 0 0 -1 1 0 0 -1 1 0 1 -1 1 0 0 -1 1 0 0 -1 1 0 1 -1 1 0 0 -1 1 0 2 -2 1 0 0 -1 1 0 2 -2 1 0 0 -1 1 0"/>
<path stroke="blue" d="M250 575l2 -2 1 0 0 -1 2 0 0 -1 1 0 2 -2 1 0 0 -1 1 0 2 -2 1 0 0 -1 1 0 2 -2 1 0 0 -1 1 0 1 -1 1 0 0 -1 1 0 0 -1 1 0 1 -1 1 0 0 -1 1 0 0 -1 1 0 1 -1 1 0 0 -1 1 0 1 -1 1 0 0 -1 1 0 1 -1 1 0 0 -1 1 0 0 -1 1 0 1 -1 1 0 0 -1"/>
<path stroke="blue" d="M288 547l1 0 0 -1 1 0 1 -1 1 0 0 -1 1 0 2 -2 1 0 0 -1 1 0 2 -2 1 0 0 -1 1 0 2 -2 1 0 0 -1 2 0 0 -1 1 0 2 -2 1 0 0 -1 1 0 2 -2 1 0 0 -1 1 0 2 -2 1 0 0 -1 1 0 1 -1 1 0 0 -1 1 0 0 -1 1 0 1 -1 1 0 0 -1 1 0 0 -1 1 0 1 -1 1 0"/>
<path stroke="blue" d="M329 518l0 -1 1 0 1 -1 1 0 0 -1 1 0 1 -1 1 0 0 -1 1 0 0 -1 1 0 1 -1 1 0 0 -1 1 0 0 -1 1 0 1 -1 1 0 0 -1 1 0 2 -2 1 0 0 -1 1 0 2 -2 1 0 0 -1 1 0 2 -2 1 0 0 -1 2 0 0 -1 1 0 2 -2 1 0 0 -1 1 0 2 -2 1 0 0 -1 1 0 2 -2 1 0 0 -1"/>
<path stroke="blue" d="M369 488l1 0 1 -1 1 0 0 -1 1 0 0 -1 1 0 1 -1 1 0 0 -1 1 0 0 -1 1 0 1 -1 1 0 0 -1 1 0 1 -1 1 0 0 -1 1 0 1 -1 1 0 0 -1 1 0 0 -1 1 0 1 -1 1 0 0 -1 1 0 0 -1 1 0 1 -1 1 0 0 -1 1 0 2 -2 1 0 0 -1 1 0 2 -2 1 0 0 -1 1 0 2 -2 1 0"/>
<path stroke="blue" d="M406 462l0 -1 2 0 0 -1 1 0 2 -2 1 0 0 -1 1 0 2 -2 1 0 0 -1 1 0 2 -2 1 0 0 -1 1 0 1 -1 1 0 0 -1 1 0 0 -1 1 0 1 -1 1 0 0 -1 1 0 0 -1 1 0 1 -1 1 0 0 -1 1 0 1 -1 1 0 0 -1 1 0 1 -1 1 0 0 -1 1 0 0 -1 1 0 1 -1 1 0 0 -1 1 0 0 -1"/>
<path stroke="blue" d="M442 435l1 0 1 -1 1 0 0 -1 1 0 2 -2 1 0 0 -1 1 0 2 -2 1 0 0 -1 1 0 2 -2 1 0 0 -1 2 0 0 -1 1 0 2 -2 1 0 0 -1 1 0 2 -2 1 0 0 -1 1 0 2 -2 1 0 0 -1 1 0 1 -1 1 0 0 -1 1 0 0 -1 1 0 1 -1 1 0 0 -1 1 0 0 -1 1 0 1 -1 1 0 0 -1 1 0"/>
<path stroke="blue" d="M483 406l1 -1 1 0 0 -1 1 0 1 -1 1 0 0 -1 1 0 0 -1 1 0 1 -1 1 0 0 -1 1 0 0 -1 1 0 1 -1 1 0 0 -1 1 0 2 -2 1 0 0 -1 1 0 2 -2 1 0 0 -1 1 0 2 -2 1 0 0 -1 2 0 0 -1 1 0 2 -2 1 0 0 -1 1 0 2 -2 1 0 0 -1 1 0 2 -2 1 0 0 -1 1 0 1 -1"/>
<path stroke="blue" d="M524 376l1 0 0 -1 1 0 0 -1 1 0 1 -1 1 0 0 -1 1 0 0 -1 1 0 1 -1 1 0 0 -1 1 0 1 -1 1 0 0 -1 1 0 1 -1 1 0 0 -1 1 0 0 -1 1 0 1 -1 1 0 0 -1 1 0 0 -1 1 0 1 -1 1 0 0 -1 1 0 2 -2 1 0 0 -1 1 0 2 -2 1 0 0 -1 1 0 2 -2 1 0 0 -1 2 0"/>
<path stroke="blue" d="M561 350l0 -1 1 0 2 -2 1 0 0 -1 1 0 2 -2 1 0 0 -1 1 0 2 -2 1 0 0 -1 1 0 1 -1 1 0 0 -1 1 0 0 -1 1 0 1 -1 1 0 0 -1 1 0 0 -1 1 0 1 -1 1 0 0 -1 1 0 1 -1 1 0 0 -1 1 0 1 -1 1 0 0 -1 1 0 0 -1 1 0 1 -1 1 0 0 -1 1 0 0 -1 1 0 1 -1"/>
<path stroke="blue" d="M597 323l1 0 0 -1 1 0 2 -2 1 0 0 -1 1 0 2 -2 1 0 0 -1 1 0 2 -2 1 0 0 -1 2 0 0 -1 1 0 2 -2 1 0 0 -1 1 0 2 -2 1 0 0 -1 1 0 2 -2 1 0 0 -1 1 0 1 -1 1 0 0 -1 1 0 0 -1 1 0 1 -1 1 0 0 -1 1 0 0 -1 1 0 1 -1 1 0 0 -1 1 0 1 -1 1 0"/>
<path stroke="blue" d="M638 294l0 -1 1 0 1 -1 1 0 0 -1 1 0 0 -1 1 0 1 -1 1 0 0 -1 1 0 0 -1 1 0 1 -1 1 0 0 -1 1 0 2 -2 1 0 0 -1 1 0 2 -2 1 0 0 -1 1 0 2 -2 1 0 0 -1 2 0 0 -1 1 0 2 -2 1 0 0 -1 1 0 2 -2 1 0 0 -1 1 0 2 -2 1 0 0 -1 1 0 1 -1 1 0 0 -1"/>
<path stroke="blue" d="M678 264l1 0 0 -1 1 0 1 -1 1 0 0 -1 1 0 0 -1 1 0 1 -1 1 0 0 -1 1 0 1 -1 1 0 0 -1 1 0 1 -1 1 0 0 -1 1 0 0 -1 1 0 1 -1 1 0 0 -1 1 0 0 -1 1 0 1 -1 1 0 0 -1 1 0 2 -2 1 0 0 -1 1 0 2 -2 1 0 0 -1 1 0 2 -2 1 0 0 -1 2 0 0 -1 1 0"/>
<path stroke="blue" d="M715 238l2 -2 1 0 0 -1 1 0 2 -2 1 0 0 -1 1 0 2 -2 1 0 0 -1 1 0 1 -1 1 0 0 -1 1 0 0 -1 1 0 1 -1 1 0 0 -1 1 0 0 -1 1 0 1 -1 1 0 0 -1 1 0 1 -1 1 0 0 -1 1 0 1 -1 1 0 0 -1 1 0 0 -1 1 0 1 -1 1 0 0 -1 1 0 0 -1 1 0 1 -1 1 0 0 -1"/>
<path stroke="blue" d="M751 211l1 0 2 -2 1 0 0 -1 1 0 2 -2 1 0 0 -1 1 0 2 -2 1 0 0 -1 2 0 0 -1 1 0 2 -2 1 0 0 -1 1 0 2 -2 1 0 0 -1 1 0 2 -2 1 0 0 -1 1 0 1 -1 1 0 0 -1 1 0 0 -1 1 0 1 -1 1 0 0 -1 1 0 0 -1 1 0 1 -1 1 0 0 -1 1 0 1 -1 1 0 0 -1 1 0"/>
<path stroke="blue" d="M792 182l1 -1 1 0 0 -1 1 0 0 -1 1 0 1 -1 1 0 0 -1 1 0 0 -1 1 0 1 -1 1 0 0 -1 1 0 2 -2 1 0 0 -1 1 0 2 -2 1 0 0 -1 1 0 2 -2 1 0 0 -1 2 0 0 -1 1 0 2 -2 1 0 0 -1 1 0 2 -2 1 0 0 -1 1 0 2 -2 1 0 0 -1 1 0 1 -1 1 0 0 -1 1 0 0 -1"/>
<path stroke="blue" d="M832 152l1 0 1 -1 1 0 0 -1 1 0 0 -1 1 0 1 -1 1 0 0 -1 1 0 1 -1 1 0 0 -1 1 0 1 -1 1 0 0 -1 1 0 0 -1 1 0 1 -1 1 0 0 -1 1 0 0 -1 1 0 1 -1 1 0 0 -1 1 0 2 -2 1 0 0 -1 1 0 2 -2 1 0 0 -1 1 0 2 -2 1 0 0 -1 2 0 0 -1 1 0 2 -2 1 0"/>
<path stroke="blue" d="M871 125l0 -1 1 0 2 -2 1 0 0 -1 1 0 2 -2 1 0 0 -1 1 0 1 -1 1 0 0 -1 1 0 0 -1 1 0 1 -1 1 0 0 -1 1 0 0 -1 1 0 1 -1 1 0 0 -1 1 0 1 -1 1 0 0 -1 1 0 1 -1 1 0 0 -1 1 0 0 -1 1 0 1 -1 1 0 0 -1 1 0 0 -1 1 0 1 -1 1 0 0 -1 1 0 2 -2"/>
<path stroke="blue" d="M907 98l1 0 0 -1 1 0 2 -2 1 0 0 -1 1 0 2 -2 1 0 0 -1 2 0 0 -1 1 0 2 -2 1 0 0 -1 1 0 2 -2 1 0 0 -1 1 0 2 -2 1 0 0 -1 1 0 1 -1 1 0 0 -1 1 0 0 -1 1 0 1 -1 1 0 0 -1 1 0 0 -1 1 0 1 -1 1 0 0 -1 1 0 1 -1 1 0 0 -1 1 0 1 -1 1 0"/>
<path stroke="blue" d="M947 70l0 -1 1 0 0 -1 1 0 1 -1 1 0 0 -1 1 0 0 -1 1 0 1 -1 1 0 0 -1 1 0 2 -2 1 0 0 -1 1 0 2 -2 1 0 0 -1 1 0 2 -2 1 0 0 -1 1 0M50 720l1 0 0 -1 1 0 2 -2 1 0 0 -1 1 0 2 -2 1 0 0 -1 1 0 2 -2 1 0 0 -1 1 0 1 -1 1 0 0 -1 1 0 0 -1"/>
<path stroke="blue" d="M67 707l1 0 1 -1 1 0 0 -1 1 0 0 -1 1 0 1 -1 1 0 0 -1 1 0 1 -1 1 0 0 -1 1 0 1 -1 1 0 0 -1 1 0 0 -1 1 0 1 -1 1 0 0 -1 1 0 0 -1 1 0 1 -1 1 0 0 -1 1 0 2 -2 1 0 0 -1 1 0 2 -2 1 0 0 -1 1 0 2 -2 1 0 0 -1 2 0 0 -1 1 0 2 -2 1 0"/>
<path stroke="blue" d="M106 680l0 -1 1 0 2 -2 1 0 0 -1 1 0 2 -2 1 0 0 -1 1 0 1 -1 1 0 0 -1 1 0 0 -1 1 0 1 -1 1 0 0 -1 1 0 0 -1 1 0 1 -1 1 0 0 -1 1 0 1 -1 1 0 0 -1 1 0 1 -1 1 0 0 -1 1 0 0 -1 1 0 1 -1 1 0 0 -1 1 0 0 -1 1 0 1 -1 1 0 0 -1 1 0 2 -2"/>
<path stroke="blue" d="M142 653l1 0 0 -1 1 0 2 -2 1 0 0 -1 1 0 2 -2 1 0 0 -1 2 0 0 -1 1 0 2 -2 1 0 0 -1 1 0 2 -2 1 0 0 -1 1 0 2 -2 1 0 0 -1 1 0 1 -1 1 0 0 -1 1 0 0 -1 1 0 1 -1 1 0 0 -1 1 0 0 -1 1 0 1 -1 1 0 0 -1 1 0 1 -1 1 0 0 -1 1 0 1 -1 1 0"/>
<path stroke="blue" d="M182 625l0 -1 1 0 0 -1 1 0 1 -1 1 0 0 -1 1 0 0 -1 1 0 1 -1 1 0 0 -1 1 0 2 -2 1 0 0 -1 1 0 2 -2 1 0 0 -1 1 0 2 -2 1 0 0 -1 2 0 0 -1 1 0 2 -2 1 0 0 -1 1 0 2 -2 1 0 0 -1 1 0 2 -2 1 0 0 -1 1 0 1 -1 1 0 0 -1 1 0 0 -1 1 0 1 -1"/>
<path stroke="blue" d="M222 595l1 0 0 -1 1 0 0 -1 1 0 1 -1 1 0 0 -1 1 0 1 -1 1 0 0 -1 1 0 1 -1 1 0 0 -1 1 0 0 -1 1 0 1 -1 1 0 0 -1 1 0 0 -1 1 0 1 -1 1 0 0 -1 1 0 2 -2 1 0 0 -1 1 0 2 -2 1 0 0 -1 1 0 2 -2 1 0 0 -1 2 0 0 -1 1 0 2 -2 1 0 0 -1 1 0"/>
<path stroke="blue" d="M260 568l2 -2 1 0 0 -1 1 0 2 -2 1 0 0 -1 1 0 1 -1 1 0 0 -1 1 0 0 -1 1 0 1 -1 1 0 0 -1 1 0 0 -1 1 0 1 -1 1 0 0 -1 1 0 1 -1 1 0 0 -1 1 0 1 -1 1 0 0 -1 1 0 0 -1 1 0 1 -1 1 0 0 -1 1 0 0 -1 1 0 1 -1 1 0 0 -1 1 0 2 -2 1 0 0 -1"/>
<path stroke="blue" d="M296 541l1 0 2 -2 1 0 0 -1 1 0 2 -2 1 0 0 -1 2 0 0 -1 1 0 2 -2 1 0 0 -1 1 0 2 -2 1 0 0 -1 1 0 2 -2 1 0 0 -1 1 0 1 -1 1 0 0 -1 1 0 0 -1 1 0 1 -1 1 0 0 -1 1 0 0 -1 1 0 1 -1 1 0 0 -1 1 0 1 -1 1 0 0 -1 1 0 1 -1 1 0 0 -1 1 0"/>
<path stroke="blue" d="M336 513l0 -1 1 0 1 -1 1 0 0 -1 1 0 0 -1 1 0 1 -1 1 0 0 -1 1 0 2 -2 1 0 0 -1 1 0 2 -2 1 0 0 -1 1 0 2 -2 1 0 0 -1 2 0 0 -1 1 0 2 -2 1 0 0 -1 1 0 2 -2 1 0 0 -1 1 0 2 -2 1 0 0 -1 1 0 1 -1 1 0 0 -1 1 0 0 -1 1 0 1 -1 1 0 0 -1"/>
<path stroke="blue" d="M376 483l1 0 0 -1 1 0 1 -1 1 0 0 -1 1 0 1 -1 1 0 0 -1 1 0 1 -1 1 0 0 -1 1 0 0 -1 1 0 1 -1 1 0 0 -1 1 0 0 -1 1 0 1 -1 1 0 0 -1 1 0 2 -2 1 0 0 -1 1 0 2 -2 1 0 0 -1 1 0 2 -2 1 0 0 -1 2 0 0 -1 1 0 2 -2 1 0 0 -1 1 0 2 -2 1 0"/>
<path stroke="blue" d="M416 455l0 -1 1 0 2 -2 1 0 0 -1 1 0 1 -1 1 0 0 -1 1 0 0 -1 1 0 1 -1 1 0 0 -1 1 0 0 -1 1 0 1 -1 1 0 0 -1 1 0 1 -1 1 0 0 -1 1 0 1 -1 1 0 0 -1 1 0 0 -1 1 0 1 -1 1 0 0 -1 1 0 0 -1 1 0 1 -1 1 0 0 -1 1 0 2 -2 1 0 0 -1 1 0 2 -2"/>
<path stroke="blue" d="M452 428l1 0 0 -1 1 0 2 -2 1 0 0 -1 2 0 0 -1 1 0 2 -2 1 0 0 -1 1 0 2 -2 1 0 0 -1 1 0 2 -2 1 0 0 -1 1 0 1 -1 1 0 0 -1 1 0 0 -1 1 0 1 -1 1 0 0 -1 1 0 0 -1 1 0 1 -1 1 0 0 -1 1 0 1 -1 1 0 0 -1 1 0 1 -1 1 0 0 -1 1 0 0 -1 1 0"/>
<path stroke="blue" d="M490 401l1 -1 1 0 0 -1 1 0 0 -1 1 0 1 -1 1 0 0 -1 1 0 2 -2 1 0 0 -1 1 0 2 -2 1 0 0 -1 1 0 2 -2 1 0 0 -1 2 0 0 -1 1 0 2 -2 1 0 0 -1 1 0 2 -2 1 0 0 -1 1 0 2 -2 1 0 0 -1 1 0 1 -1 1 0 0 -1 1 0 0 -1 1 0 1 -1 1 0 0 -1 1 0 0 -1"/>
<path stroke="blue" d="M530 371l1 0 1 -1 1 0 0 -1 1 0 1 -1 1 0 0 -1 1 0 1 -1 1 0 0 -1 1 0 0 -1 1 0 1 -1 1 0 0 -1 1 0 0 -1 1 0 1 -1 1 0 0 -1 1 0 2 -2 1 0 0 -1 1 0 2 -2 1 0 0 -1 1 0 2 -2 1 0 0 -1 2 0 0 -1 1 0 2 -2 1 0 0 -1 1 0 2 -2 1 0 0 -1 1 0"/>
<path stroke="blue" d="M570 343l2 -2 1 0 0 -1 1 0 1 -1 1 0 0 -1 1 0 0 -1 1 0 1 -1 1 0 0 -1 1 0 0 -1 1 0 1 -1 1 0 0 -1 1 0 1 -1 1 0 0 -1 1 0 1 -1 1 0 0 -1 1 0 0 -1 1 0 1 -1 1 0 0 -1 1 0 0 -1 1 0 1 -1 1 0 0 -1 1 0 2 -2 1 0 0 -1 1 0 2 -2 1 0 0 -1"/>
<path stroke="blue" d="M606 316l1 0 2 -2 1 0 0 -1 2 0 0 -1 1 0 2 -2 1 0 0 -1 1 0 2 -2 1 0 0 -1 1 0 2 -2 1 0 0 -1 1 0 1 -1 1 0 0 -1 1 0 0 -1 1 0 1 -1 1 0 0 -1 1 0 0 -1 1 0 1 -1 1 0 0 -1 1 0 1 -1 1 0 0 -1 1 0 1 -1 1 0 0 -1 1 0 0 -1 1 0 1 -1 1 0"/>
<path stroke="blue" d="M645 289l0 -1 1 0 0 -1 1 0 1 -1 1 0 0 -1 1 0 2 -2 1 0 0 -1 1 0 2 -2 1 0 0 -1 1 0 2 -2 1 0 0 -1 2 0 0 -1 1 0 2 -2 1 0 0 -1 1 0 2 -2 1 0 0 -1 1 0 2 -2 1 0 0 -1 1 0 1 -1 1 0 0 -1 1 0 0 -1 1 0 1 -1 1 0 0 -1 1 0 0 -1 1 0 1 -1"/>
<path stroke="blue" d="M685 259l1 0 0 -1 1 0 1 -1 1 0 0 -1 1 0 1 -1 1 0 0 -1 1 0 0 -1 1 0 1 -1 1 0 0 -1 1 0 0 -1 1 0 1 -1 1 0 0 -1 1 0 2 -2 1 0 0 -1 1 0 2 -2 1 0 0 -1 1 0 2 -2 1 0 0 -1 2 0 0 -1 1 0 2 -2 1 0 0 -1 1 0 2 -2 1 0 0 -1 1 0 2 -2 1 0"/>
<path stroke="blue" d="M726 230l0 -1 1 0 1 -1 1 0 0 -1 1 0 0 -1 1 0 1 -1 1 0 0 -1 1 0 0 -1 1 0 1 -1 1 0 0 -1 1 0 1 -1 1 0 0 -1 1 0 1 -1 1 0 0 -1 1 0 0 -1 1 0 1 -1 1 0 0 -1 1 0 0 -1 1 0 1 -1 1 0 0 -1 1 0 2 -2 1 0 0 -1 1 0 2 -2 1 0 0 -1 1 0 2 -2"/>
<path stroke="blue" d="M762 203l1 0 0 -1 2 0 0 -1 1 0 2 -2 1 0 0 -1 1 0 2 -2 1 0 0 -1 1 0 2 -2 1 0 0 -1 1 0 1 -1 1 0 0 -1 1 0 0 -1 1 0 1 -1 1 0 0 -1 1 0 0 -1 1 0 1 -1 1 0 0 -1 1 0 1 -1 1 0 0 -1 1 0 1 -1 1 0 0 -1 1 0 0 -1 1 0 1 -1 1 0 0 -1 1 0"/>
<path stroke="blue" d="M799 177l0 -1 1 0 1 -1 1 0 0 -1 1 0 2 -2 1 0 0 -1 1 0 2 -2 1 0 0 -1 1 0 2 -2 1 0 0 -1 2 0 0 -1 1 0 2 -2 1 0 0 -1 1 0 2 -2 1 0 0 -1 1 0 2 -2 1 0 0 -1 1 0 1 -1 1 0 0 -1 1 0 0 -1 1 0 1 -1 1 0 0 -1 1 0 0 -1 1 0 1 -1 1 0 0 -1"/>
<path stroke="blue" d="M839 147l1 0 1 -1 1 0 0 -1 1 0 1 -1 1 0 0 -1 1 0 0 -1 1 0 1 -1 1 0 0 -1 1 0 0 -1 1 0 1 -1 1 0 0 -1 1 0 2 -2 1 0 0 -1 1 0 2 -2 1 0 0 -1 1 0 2 -2 1 0 0 -1 2 0 0 -1 1 0 2 -2 1 0 0 -1 1 0 2 -2 1 0 0 -1 1 0 2 -2 1 0 0 -1 1 0"/>
<path stroke="blue" d="M880 118l1 -1 1 0 0 -1 1 0 0 -1 1 0 1 -1 1 0 0 -1 1 0 0 -1 1 0 1 -1 1 0 0 -1 1 0 1 -1 1 0 0 -1 1 0 1 -1 1 0 0 -1 1 0 0 -1 1 0 1 -1 1 0 0 -1 1 0 0 -1 1 0 1 -1 1 0 0 -1 1 0 2 -2 1 0 0 -1 1 0 2 -2 1 0 0 -1 1 0 2 -2 1 0 0 -1"/>
<path stroke="blue" d="M916 91l2 0 0 -1 1 0 2 -2 1 0 0 -1 1 0 2 -2 1 0 0 -1 1 0 2 -2 1 0 0 -1 1 0 1 -1 1 0 0 -1 1 0 0 -1 1 0 1 -1 1 0 0 -1 1 0 0 -1 1 0 1 -1 1 0 0 -1 1 0 1 -1 1 0 0 -1 1 0 1 -1 1 0 0 -1 1 0 0 -1 1 0 1 -1 1 0 0 -1 1 0 0 -1 1 0"/>
<path stroke="blue" d="M953 65l1 -1 1 0 0 -1 1 0 2 -2 1 0 0 -1 1 0 2 -2 1 0 0 -1 1 0 2 -2 1 0 0 -1 1 0M50 720l1 0 0 -1 1 0 2 -2 1 0 0 -1 1 0 2 -2 1 0 0 -1 1 0 2 -2 1 0 0 -1 1 0 1 -1 1 0 0 -1 1 0 0 -1 1 0 1 -1 1 0 0 -1 1 0 0 -1 1 0 1 -1 1 0 0 -1"/>
<path stroke="blue" d="M74 702l1 0 1 -1 1 0 0 -1 1 0 1 -1 1 0 0 -1 1 0 0 -1 1 0 1 -1 1 0 0 -1 1 0 0 -1 1 0 1 -1 1 0 0 -1 1 0 2 -2 1 0 0 -1 1 0 2 -2 1 0 0 -1 1 0 2 -2 1 0 0 -1 2 0 0 -1 1 0 2 -2 1 0 0 -1 1 0 2 -2 1 0 0 -1 1 0 2 -2 1 0 0 -1 1 0"/>
<path stroke="blue" d="M115 673l1 -1 1 0 0 -1 1 0 0 -1 1 0 1 -1 1 0 0 -1 1 0 0 -1 1 0 1 -1 1 0 0 -1 1 0 1 -1 1 0 0 -1 1 0 1 -1 1 0 0 -1 1 0 0 -1 1 0 1 -1 1 0 0 -1 1 0 0 -1 1 0 1 -1 1 0 0 -1 1 0 2 -2 1 0 0 -1 1 0 2 -2 1 0 0 -1 1 0 2 -2 1 0 0 -1"/>
<path stroke="blue" d="M151 646l2 0 0 -1 1 0 2 -2 1 0 0 -1 1 0 2 -2 1 0 0 -1 1 0 2 -2 1 0 0 -1 1 0 1 -1 1 0 0 -1 1 0 0 -1 1 0 1 -1 1 0 0 -1 1 0 0 -1 1 0 1 -1 1 0 0 -1 1 0 1 -1 1 0 0 -1 1 0 1 -1 1 0 0 -1 1 0 0 -1 1 0 1 -1 1 0 0 -1 1 0 0 -1 1 0"/>
<path stroke="blue" d="M188 620l1 -1 1 0 0 -1 1 0 2 -2 1 0 0 -1 1 0 2 -2 1 0 0 -1 1 0 2 -2 1 0 0 -1 2 0 0 -1 1 0 2 -2 1 0 0 -1 1 0 2 -2 1 0 0 -1 1 0 2 -2 1 0 0 -1 1 0 1 -1 1 0 0 -1 1 0 0 -1 1 0 1 -1 1 0 0 -1 1 0 0 -1 1 0 1 -1 1 0 0 -1 1 0 1 -1"/>
<path stroke="blue" d="M229 590l1 0 0 -1 1 0 1 -1 1 0 0 -1 1 0 0 -1 1 0 1 -1 1 0 0 -1 1 0 0 -1 1 0 1 -1 1 0 0 -1 1 0 2 -2 1 0 0 -1 1 0 2 -2 1 0 0 -1 1 0 2 -2 1 0 0 -1 2 0 0 -1 1 0 2 -2 1 0 0 -1 1 0 2 -2 1 0 0 -1 1 0 2 -2 1 0 0 -1 1 0 1 -1 1 0"/>
<path stroke="blue" d="M270 561l0 -1 1 0 0 -1 1 0 1 -1 1 0 0 -1 1 0 0 -1 1 0 1 -1 1 0 0 -1 1 0 1 -1 1 0 0 -1 1 0 1 -1 1 0 0 -1 1 0 0 -1 1 0 1 -1 1 0 0 -1 1 0 0 -1 1 0 1 -1 1 0 0 -1 1 0 2 -2 1 0 0 -1 1 0 2 -2 1 0 0 -1 1 0 2 -2 1 0 0 -1 2 0 0 -1"/>
<path stroke="blue" d="M306 534l1 0 2 -2 1 0 0 -1 1 0 2 -2 1 0 0 -1 1 0 2 -2 1 0 0 -1 1 0 1 -1 1 0 0 -1 1 0 0 -1 1 0 1 -1 1 0 0 -1 1 0 0 -1 1 0 1 -1 1 0 0 -1 1 0 1 -1 1 0 0 -1 1 0 1 -1 1 0 0 -1 1 0 0 -1 1 0 1 -1 1 0 0 -1 1 0 0 -1 1 0 1 -1 1 0"/>
<path stroke="blue" d="M343 508l0 -1 1 0 2 -2 1 0 0 -1 1 0 2 -2 1 0 0 -1 1 0 2 -2 1 0 0 -1 2 0 0 -1 1 0 2 -2 1 0 0 -1 1 0 2 -2 1 0 0 -1 1 0 2 -2 1 0 0 -1 1 0 1 -1 1 0 0 -1 1 0 0 -1 1 0 1 -1 1 0 0 -1 1 0 0 -1 1 0 1 -1 1 0 0 -1 1 0 1 -1 1 0 0 -1"/>
<path stroke="blue" d="M383 478l1 0 1 -1 1 0 0 -1 1 0 0 -1 1 0 1 -1 1 0 0 -1 1 0 0 -1 1 0 1 -1 1 0 0 -1 1 0 2 -2 1 0 0 -1 1 0 2 -2 1 0 0 -1 1 0 2 -2 1 0 0 -1 2 0 0 -1 1 0 2 -2 1 0 0 -1 1 0 2 -2 1 0 0 -1 1 0 2 -2 1 0 0 -1 1 0 1 -1 1 0 0 -1 1 0"/>
<path stroke="blue" d="M424 449l0 -1 1 0 1 -1 1 0 0 -1 1 0 0 -1 1 0 1 -1 1 0 0 -1 1 0 1 -1 1 0 0 -1 1 0 1 -1 1 0 0 -1 1 0 0 -1 1 0 1 -1 1 0 0 -1 1 0 0 -1 1 0 1 -1 1 0 0 -1 1 0 2 -2 1 0 0 -1 1 0 2 -2 1 0 0 -1 1 0 2 -2 1 0 0 -1 2 0 0 -1 1 0 2 -2"/>
<path stroke="blue" d="M462 421l1 0 0 -1 1 0 2 -2 1 0 0 -1 1 0 2 -2 1 0 0 -1 1 0 1 -1 1 0 0 -1 1 0 0 -1 1 0 1 -1 1 0 0 -1 1 0 0 -1 1 0 1 -1 1 0 0 -1 1 0 1 -1 1 0 0 -1 1 0 1 -1 1 0 0 -1 1 0 0 -1 1 0 1 -1 1 0 0 -1 1 0 0 -1 1 0 1 -1 1 0 0 -1 1 0"/>
<path stroke="blue" d="M497 396l2 -2 1 0 0 -1 1 0 2 -2 1 0 0 -1 1 0 2 -2 1 0 0 -1 2 0 0 -1 1 0 2 -2 1 0 0 -1 1 0 2 -2 1 0 0 -1 1 0 2 -2 1 0 0 -1 1 0 1 -1 1 0 0 -1 1 0 0 -1 1 0 1 -1 1 0 0 -1 1 0 0 -1 1 0 1 -1 1 0 0 -1 1 0 1 -1 1 0 0 -1 1 0 1 -1"/>
<path stroke="blue" d="M538 366l1 0 0 -1 1 0 0 -1 1 0 1 -1 1 0 0 -1 1 0 0 -1 1 0 1 -1 1 0 0 -1 1 0 2 -2 1 0 0 -1 1 0 2 -2 1 0 0 -1 1 0 2 -2 1 0 0 -1 2 0 0 -1 1 0 2 -2 1 0 0 -1 1 0 2 -2 1 0 0 -1 1 0 2 -2 1 0 0 -1 1 0 1 -1 1 0 0 -1 1 0 0 -1 1 0"/>
<path stroke="blue" d="M578 337l1 -1 1 0 0 -1 1 0 0 -1 1 0 1 -1 1 0 0 -1 1 0 1 -1 1 0 0 -1 1 0 1 -1 1 0 0 -1 1 0 0 -1 1 0 1 -1 1 0 0 -1 1 0 0 -1 1 0 1 -1 1 0 0 -1 1 0 2 -2 1 0 0 -1 1 0 2 -2 1 0 0 -1 1 0 2 -2 1 0 0 -1 2 0 0 -1 1 0 2 -2 1 0 0 -1"/>
<path stroke="blue" d="M616 309l1 0 2 -2 1 0 0 -1 1 0 2 -2 1 0 0 -1 1 0 1 -1 1 0 0 -1 1 0 0 -1 1 0 1 -1 1 0 0 -1 1 0 0 -1 1 0 1 -1 1 0 0 -1 1 0 1 -1 1 0 0 -1 1 0 1 -1 1 0 0 -1 1 0 0 -1 1 0 1 -1 1 0 0 -1 1 0 0 -1 1 0 1 -1 1 0 0 -1 1 0 2 -2 1 0"/>
<path stroke="blue" d="M653 283l0 -1 1 0 2 -2 1 0 0 -1 1 0 2 -2 1 0 0 -1 2 0 0 -1 1 0 2 -2 1 0 0 -1 1 0 2 -2 1 0 0 -1 1 0 2 -2 1 0 0 -1 1 0 1 -1 1 0 0 -1 1 0 0 -1 1 0 1 -1 1 0 0 -1 1 0 0 -1 1 0 1 -1 1 0 0 -1 1 0 1 -1 1 0 0 -1 1 0 1 -1 1 0 0 -1"/>
<path stroke="blue" d="M692 254l1 0 0 -1 1 0 1 -1 1 0 0 -1 1 0 0 -1 1 0 1 -1 1 0 0 -1 1 0 2 -2 1 0 0 -1 1 0 2 -2 1 0 0 -1 1 0 2 -2 1 0 0 -1 2 0 0 -1 1 0 2 -2 1 0 0 -1 1 0 2 -2 1 0 0 -1 1 0 2 -2 1 0 0 -1 1 0 1 -1 1 0 0 -1 1 0 0 -1 1 0 1 -1 1 0"/>
<path stroke="blue" d="M733 225l0 -1 1 0 0 -1 1 0 1 -1 1 0 0 -1 1 0 1 -1 1 0 0 -1 1 0 1 -1 1 0 0 -1 1 0 0 -1 1 0 1 -1 1 0 0 -1 1 0 0 -1 1 0 1 -1 1 0 0 -1 1 0 2 -2 1 0 0 -1 1 0 2 -2 1 0 0 -1 1 0 2 -2 1 0 0 -1 2 0 0 -1 1 0 2 -2 1 0 0 -1 1 0 2 -2"/>
<path stroke="blue" d="M772 196l1 0 0 -1 1 0 2 -2 1 0 0 -1 1 0 1 -1 1 0 0 -1 1 0 0 -1 1 0 1 -1 1 0 0 -1 1 0 0 -1 1 0 1 -1 1 0 0 -1 1 0 1 -1 1 0 0 -1 1 0 1 -1 1 0 0 -1 1 0 0 -1 1 0 1 -1 1 0 0 -1 1 0 0 -1 1 0 1 -1 1 0 0 -1 1 0 2 -2 1 0 0 -1 1 0"/>
<path stroke="blue" d="M807 171l2 -2 1 0 0 -1 1 0 2 -2 1 0 0 -1 2 0 0 -1 1 0 2 -2 1 0 0 -1 1 0 2 -2 1 0 0 -1 1 0 2 -2 1 0 0 -1 1 0 1 -1 1 0 0 -1 1 0 0 -1 1 0 1 -1 1 0 0 -1 1 0 0 -1 1 0 1 -1 1 0 0 -1 1 0 1 -1 1 0 0 -1 1 0 1 -1 1 0 0 -1 1 0 0 -1"/>
<path stroke="blue" d="M846 142l1 0 1 -1 1 0 0 -1 1 0 0 -1 1 0 1 -1 1 0 0 -1 1 0 2 -2 1 0 0 -1 1 0 2 -2 1 0 0 -1 1 0 2 -2 1 0 0 -1 2 0 0 -1 1 0 2 -2 1 0 0 -1 1 0 2 -2 1 0 0 -1 1 0 2 -2 1 0 0 -1 1 0 1 -1 1 0 0 -1 1 0 0 -1 1 0 1 -1 1 0 0 -1 1 0"/>
<path stroke="blue" d="M887 113l0 -1 1 0 1 -1 1 0 0 -1 1 0 1 -1 1 0 0 -1 1 0 1 -1 1 0 0 -1 1 0 0 -1 1 0 1 -1 1 0 0 -1 1 0 0 -1 1 0 1 -1 1 0 0 -1 1 0 2 -2 1 0 0 -1 1 0 2 -2 1 0 0 -1 1 0 2 -2 1 0 0 -1 2 0 0 -1 1 0 2 -2 1 0 0 -1 1 0 2 -2 1 0 0 -1"/>
<path stroke="blue" d="M926 84l1 0 2 -2 1 0 0 -1 1 0 1 -1 1 0 0 -1 1 0 0 -1 1 0 1 -1 1 0 0 -1 1 0 0 -1 1 0 1 -1 1 0 0 -1 1 0 1 -1 1 0 0 -1 1 0 1 -1 1 0 0 -1 1 0 0 -1 1 0 1 -1 1 0 0 -1 1 0 0 -1 1 0 1 -1 1 0 0 -1 1 0 2 -2 1 0 0 -1 1 0 2 -2 1 0"/>
<path stroke="blue" d="M963 58l0 -1 1 0 2 -2 1 0 0 -1 1 0M50 720l1 0 0 -1 1 0 2 -2 1 0 0 -1 1 0 2 -2 1 0 0 -1 1 0 2 -2 1 0 0 -1 1 0 1 -1 1 0 0 -1 1 0 0 -1 1 0 1 -1 1 0 0 -1 1 0 0 -1 1 0 1 -1 1 0 0 -1 1 0 1 -1 1 0 0 -1 1 0 1 -1 1 0 0 -1 1 0 0 -1"/>
<path stroke="blue" d="M81 697l1 0 1 -1 1 0 0 -1 1 0 0 -1 1 0 1 -1 1 0 0 -1 1 0 2 -2 1 0 0 -1 1 0 2 -2 1 0 0 -1 1 0 2 -2 1 0 0 -1 2 0 0 -1 1 0 2 -2 1 0 0 -1 1 0 2 -2 1 0 0 -1 1 0 2 -2 1 0 0 -1 1 0 1 -1 1 0 0 -1 1 0 0 -1 1 0 1 -1 1 0 0 -1 1 0"/>
<path stroke="blue" d="M122 668l0 -1 1 0 1 -1 1 0 0 -1 1 0 1 -1 1 0 0 -1 1 0 1 -1 1 0 0 -1 1 0 0 -1 1 0 1 -1 1 0 0 -1 1 0 0 -1 1 0 1 -1 1 0 0 -1 1 0 2 -2 1 0 0 -1 1 0 2 -2 1 0 0 -1 1 0 2 -2 1 0 0 -1 2 0 0 -1 1 0 2 -2 1 0 0 -1 1 0 2 -2 1 0 0 -1"/>
<path stroke="blue" d="M161 639l1 0 2 -2 1 0 0 -1 1 0 1 -1 1 0 0 -1 1 0 0 -1 1 0 1 -1 1 0 0 -1 1 0 0 -1 1 0 1 -1 1 0 0 -1 1 0 1 -1 1 0 0 -1 1 0 1 -1 1 0 0 -1 1 0 0 -1 1 0 1 -1 1 0 0 -1 1 0 0 -1 1 0 1 -1 1 0 0 -1 1 0 2 -2 1 0 0 -1 1 0 2 -2 1 0"/>
<path stroke="blue" d="M198 613l0 -1 1 0 2 -2 1 0 0 -1 2 0 0 -1 1 0 2 -2 1 0 0 -1 1 0 2 -2 1 0 0 -1 1 0 2 -2 1 0 0 -1 1 0 1 -1 1 0 0 -1 1 0 0 -1 1 0 1 -1 1 0 0 -1 1 0 0 -1 1 0 1 -1 1 0 0 -1 1 0 1 -1 1 0 0 -1 1 0 1 -1 1 0 0 -1 1 0 0 -1 1 0 1 -1"/>
<path stroke="blue" d="M236 585l1 0 0 -1 1 0 0 -1 1 0 1 -1 1 0 0 -1 1 0 2 -2 1 0 0 -1 1 0 2 -2 1 0 0 -1 1 0 2 -2 1 0 0 -1 2 0 0 -1 1 0 2 -2 1 0 0 -1 1 0 2 -2 1 0 0 -1 1 0 2 -2 1 0 0 -1 1 0 1 -1 1 0 0 -1 1 0 0 -1 1 0 1 -1 1 0 0 -1 1 0 0 -1 1 0"/>
<path stroke="blue" d="M276 556l1 -1 1 0 0 -1 1 0 1 -1 1 0 0 -1 1 0 1 -1 1 0 0 -1 1 0 0 -1 1 0 1 -1 1 0 0 -1 1 0 0 -1 1 0 1 -1 1 0 0 -1 1 0 2 -2 1 0 0 -1 1 0 2 -2 1 0 0 -1 1 0 2 -2 1 0 0 -1 2 0 0 -1 1 0 2 -2 1 0 0 -1 1 0 2 -2 1 0 0 -1 1 0 2 -2"/>
<path stroke="blue" d="M317 526l1 0 0 -1 1 0 1 -1 1 0 0 -1 1 0 0 -1 1 0 1 -1 1 0 0 -1 1 0 0 -1 1 0 1 -1 1 0 0 -1 1 0 1 -1 1 0 0 -1 1 0 1 -1 1 0 0 -1 1 0 0 -1 1 0 1 -1 1 0 0 -1 1 0 0 -1 1 0 1 -1 1 0 0 -1 1 0 2 -2 1 0 0 -1 1 0 2 -2 1 0 0 -1 1 0"/>
<path stroke="blue" d="M352 501l2 -2 1 0 0 -1 2 0 0 -1 1 0 2 -2 1 0 0 -1 1 0 2 -2 1 0 0 -1 1 0 2 -2 1 0 0 -1 1 0 1 -1 1 0 0 -1 1 0 0 -1 1 0 1 -1 1 0 0 -1 1 0 0 -1 1 0 1 -1 1 0 0 -1 1 0 1 -1 1 0 0 -1 1 0 1 -1 1 0 0 -1 1 0 0 -1 1 0 1 -1 1 0 0 -1"/>
<path stroke="blue" d="M390 473l1 0 0 -1 1 0 1 -1 1 0 0 -1 1 0 2 -2 1 0 0 -1 1 0 2 -2 1 0 0 -1 1 0 2 -2 1 0 0 -1 2 0 0 -1 1 0 2 -2 1 0 0 -1 1 0 2 -2 1 0 0 -1 1 0 2 -2 1 0 0 -1 1 0 1 -1 1 0 0 -1 1 0 0 -1 1 0 1 -1 1 0 0 -1 1 0 0 -1 1 0 1 -1 1 0"/>
<path stroke="blue" d="M431 444l0 -1 1 0 1 -1 1 0 0 -1 1 0 1 -1 1 0 0 -1 1 0 0 -1 1 0 1 -1 1 0 0 -1 1 0 0 -1 1 0 1 -1 1 0 0 -1 1 0 2 -2 1 0 0 -1 1 0 2 -2 1 0 0 -1 1 0 2 -2 1 0 0 -1 2 0 0 -1 1 0 2 -2 1 0 0 -1 1 0 2 -2 1 0 0 -1 1 0 2 -2 1 0 0 -1"/>
<path stroke="blue" d="M471 414l1 0 1 -1 1 0 0 -1 1 0 0 -1 1 0 1 -1 1 0 0 -1 1 0 0 -1 1 0 1 -1 1 0 0 -1 1 0 1 -1 1 0 0 -1 1 0 1 -1 1 0 0 -1 1 0 0 -1 1 0 1 -1 1 0 0 -1 1 0 0 -1 1 0 1 -1 1 0 0 -1 1 0 2 -2 1 0 0 -1 1 0 2 -2 1 0 0 -1 1 0 2 -2 1 0"/>
<path stroke="blue" d="M508 388l0 -1 2 0 0 -1 1 0 2 -2 1 0 0 -1 1 0 2 -2 1 0 0 -1 1 0 2 -2 1 0 0 -1 1 0 1 -1 1 0 0 -1 1 0 0 -1 1 0 1 -1 1 0 0 -1 1 0 0 -1 1 0 1 -1 1 0 0 -1 1 0 1 -1 1 0 0 -1 1 0 1 -1 1 0 0 -1 1 0 0 -1 1 0 1 -1 1 0 0 -1 1 0 0 -1"/>
<path stroke="blue" d="M544 361l1 0 1 -1 1 0 0 -1 1 0 2 -2 1 0 0 -1 1 0 2 -2 1 0 0 -1 1 0 2 -2 1 0 0 -1 2 0 0 -1 1 0 2 -2 1 0 0 -1 1 0 2 -2 1 0 0 -1 1 0 2 -2 1 0 0 -1 1 0 1 -1 1 0 0 -1 1 0 0 -1 1 0 1 -1 1 0 0 -1 1 0 0 -1 1 0 1 -1 1 0 0 -1 1 0"/>
<path stroke="blue" d="M585 332l1 -1 1 0 0 -1 1 0 1 -1 1 0 0 -1 1 0 0 -1 1 0 1 -1 1 0 0 -1 1 0 0 -1 1 0 1 -1 1 0 0 -1 1 0 2 -2 1 0 0 -1 1 0 2 -2 1 0 0 -1 1 0 2 -2 1 0 0 -1 2 0 0 -1 1 0 2 -2 1 0 0 -1 1 0 2 -2 1 0 0 -1 1 0 2 -2 1 0 0 -1 1 0 1 -1"/>
<path stroke="blue" d="M626 302l1 0 0 -1 1 0 0 -1 1 0 1 -1 1 0 0 -1 1 0 0 -1 1 0 1 -1 1 0 0 -1 1 0 1 -1 1 0 0 -1 1 0 1 -1 1 0 0 -1 1 0 0 -1 1 0 1 -1 1 0 0 -1 1 0 0 -1 1 0 1 -1 1 0 0 -1 1 0 2 -2 1 0 0 -1 1 0 2 -2 1 0 0 -1 1 0 2 -2 1 0 0 -1 2 0"/>
<path stroke="blue" d="M663 276l0 -1 1 0 2 -2 1 0 0 -1 1 0 2 -2 1 0 0 -1 1 0 2 -2 1 0 0 -1 1 0 1 -1 1 0 0 -1 1 0 0 -1 1 0 1 -1 1 0 0 -1 1 0 0 -1 1 0 1 -1 1 0 0 -1 1 0 1 -1 1 0 0 -1 1 0 1 -1 1 0 0 -1 1 0 0 -1 1 0 1 -1 1 0 0 -1 1 0 0 -1 1 0 1 -1"/>
<path stroke="blue" d="M699 249l1 0 0 -1 1 0 2 -2 1 0 0 -1 1 0 2 -2 1 0 0 -1 1 0 2 -2 1 0 0 -1 2 0 0 -1 1 0 2 -2 1 0 0 -1 1 0 2 -2 1 0 0 -1 1 0 2 -2 1 0 0 -1 1 0 1 -1 1 0 0 -1 1 0 0 -1 1 0 1 -1 1 0 0 -1 1 0 0 -1 1 0 1 -1 1 0 0 -1 1 0 1 -1 1 0"/>
<path stroke="blue" d="M740 220l0 -1 1 0 1 -1 1 0 0 -1 1 0 0 -1 1 0 1 -1 1 0 0 -1 1 0 0 -1 1 0 1 -1 1 0 0 -1 1 0 2 -2 1 0 0 -1 1 0 2 -2 1 0 0 -1 1 0 2 -2 1 0 0 -1 2 0 0 -1 1 0 2 -2 1 0 0 -1 1 0 2 -2 1 0 0 -1 1 0 2 -2 1 0 0 -1 1 0 1 -1 1 0 0 -1"/>
<path stroke="blue" d="M780 190l1 0 0 -1 1 0 1 -1 1 0 0 -1 1 0 0 -1 1 0 1 -1 1 0 0 -1 1 0 1 -1 1 0 0 -1 1 0 1 -1 1 0 0 -1 1 0 0 -1 1 0 1 -1 1 0 0 -1 1 0 0 -1 1 0 1 -1 1 0 0 -1 1 0 2 -2 1 0 0 -1 1 0 2 -2 1 0 0 -1 1 0 2 -2 1 0 0 -1 2 0 0 -1 1 0"/>
<path stroke="blue" d="M817 164l2 -2 1 0 0 -1 1 0 2 -2 1 0 0 -1 1 0 2 -2 1 0 0 -1 1 0 1 -1 1 0 0 -1 1 0 0 -1 1 0 1 -1 1 0 0 -1 1 0 0 -1 1 0 1 -1 1 0 0 -1 1 0 1 -1 1 0 0 -1 1 0 1 -1 1 0 0 -1 1 0 0 -1 1 0 1 -1 1 0 0 -1 1 0 0 -1 1 0 1 -1 1 0 0 -1"/>
<path stroke="blue" d="M853 137l1 0 2 -2 1 0 0 -1 1 0 2 -2 1 0 0 -1 1 0 2 -2 1 0 0 -1 2 0 0 -1 1 0 2 -2 1 0 0 -1 1 0 2 -2 1 0 0 -1 1 0 2 -2 1 0 0 -1 1 0 1 -1 1 0 0 -1 1 0 0 -1 1 0 1 -1 1 0 0 -1 1 0 0 -1 1 0 1 -1 1 0 0 -1 1 0 1 -1 1 0 0 -1 1 0"/>
<path stroke="blue" d="M894 108l1 -1 1 0 0 -1 1 0 0 -1 1 0 1 -1 1 0 0 -1 1 0 0 -1 1 0 1 -1 1 0 0 -1 1 0 2 -2 1 0 0 -1 1 0 2 -2 1 0 0 -1 1 0 2 -2 1 0 0 -1 2 0 0 -1 1 0 2 -2 1 0 0 -1 1 0 2 -2 1 0 0 -1 1 0 2 -2 1 0 0 -1 1 0 1 -1 1 0 0 -1 1 0 0 -1"/>
<path stroke="blue" d="M934 78l1 0 1 -1 1 0 0 -1 1 0 0 -1 1 0 1 -1 1 0 0 -1 1 0 1 -1 1 0 0 -1 1 0 1 -1 1 0 0 -1 1 0 0 -1 1 0 1 -1 1 0 0 -1 1 0 0 -1 1 0 1 -1 1 0 0 -1 1 0 2 -2 1 0 0 -1 1 0 2 -2 1 0 0 -1 1 0 2 -2 1 0 0 -1 1 0"/>
<path stroke="#FFA500" d="M459 39l45 0"/>
<text stroke="none" fill="white" font-size="16" x="514" y="48">
v(v_2)
</text>
<path stroke="#FFA500" d="M50 494l918 0M50 402l918 0M50 309l918 0M50 217l918 0M50 124l918 0"/>
<text stroke="none" fill="white" font-size="16" x="502" y="428">

</text>
</svg>
